<svg xmlns="http://www.w3.org/2000/svg" width="500" viewBox="0 0 375 375" height="500" version="1.0"><path fill="#fff" d="M-37.5-37.5h450v450h-450z"/><path fill="#fff" d="M-37.5-37.5h450v450h-450z"/><path fill="#f3c610" d="M-37.5-37.5h450v450h-450z"/><path d="M244.707 91.064c39.597 0 56.398-13.598 56.398-35.598 0-14.402-9.199-23.203-22.8-23.203-16.399 0-22 6.8-45.598 6.8-21.2 0-64.801-10.8-99.602-10.8-48.797 0-80.398 29.602-80.398 68.8 0 30.403 26.398 56 54.398 56 16.801 0 27.2-8.8 27.2-21.597 0-9.601-6.399-16-14-20-7.598-4-15.598-8.8-15.598-16 0-6.8 9.199-16 29.199-16 6 0 12.8.399 20.398 1.598-2.398 34.402-4.398 60.8-5.597 80.398-12.403 2.403-22.403 6.403-30.403 11.203-9.199 5.598-14.398 14.797-14.398 24.399 0 12 10.8 20.8 24.8 20.8 4 0 9.2-.8 15.2-2.402-5.602 48.403-13.602 66.801-24.8 66.801-9.2 0-13.2-6.8-17.2-14-4.398-7.598-8.8-15.2-20.398-15.2-16 0-28 12.802-28 31.2 0 23.602 24.398 48 61.597 48 49.2 0 77.602-36.398 83.2-99.598.8-8.8 1.601-17.203 2-25.601 10.8.398 24.8 2.8 31.601 2.8 18 0 28.8-9.6 28.8-23.199 0-12-9.6-22-24-25.203-11.6-2.797-22-4-32-4.398l5.2-68.399c12 1.598 23.598 2.399 34.8 2.399Zm0 0" fill="#ffc1b2" fill-opacity=".302"/><path d="M255.293 95.557c39.597 0 56.398-13.597 56.398-35.597 0-14.403-9.2-23.203-22.8-23.203-16.4 0-22 6.8-45.598 6.8-21.2 0-64.801-10.8-99.602-10.8-48.797 0-80.398 29.601-80.398 68.8 0 30.403 26.398 56 54.398 56 16.8 0 27.2-8.8 27.2-21.597 0-9.602-6.4-16-14-20-7.598-4-15.598-8.801-15.598-16 0-6.801 9.199-16 29.199-16 6 0 12.8.398 20.398 1.597-2.398 34.403-4.398 60.801-5.597 80.399-12.403 2.402-22.403 6.402-30.403 11.203-9.199 5.598-14.398 14.797-14.398 24.398 0 12 10.8 20.801 24.8 20.801 4 0 9.2-.8 15.2-2.402-5.602 48.402-13.602 66.8-24.801 66.8-9.2 0-13.2-6.8-17.2-14-4.398-7.597-8.8-15.199-20.398-15.199-16 0-28 12.801-28 31.2 0 23.601 24.399 48 61.598 48 49.2 0 77.602-36.399 83.2-99.598.8-8.8 1.6-17.203 2-25.602 10.8.399 24.8 2.801 31.6 2.801 18 0 28.802-9.601 28.802-23.2 0-12-9.602-22-24-25.202-11.602-2.797-22-4-32-4.399l5.199-68.398c12 1.598 23.597 2.398 34.8 2.398Zm0 0" fill="#ffc1b2" fill-opacity=".502"/><path d="M265.878 100.05c39.598 0 56.399-13.597 56.399-35.597 0-14.402-9.2-23.203-22.8-23.203-16.4 0-22 6.8-45.599 6.8-21.199 0-64.8-10.8-99.601-10.8-48.797 0-80.399 29.601-80.399 68.8 0 30.403 26.399 56 54.399 56 16.8 0 27.2-8.8 27.2-21.597 0-9.602-6.4-16-14-20-7.599-4-15.599-8.8-15.599-16 0-6.8 9.2-16 29.2-16 6 0 12.8.398 20.398 1.598-2.398 34.402-4.398 60.8-5.598 80.398-12.402 2.402-22.402 6.402-30.402 11.203-9.2 5.598-14.398 14.797-14.398 24.399 0 12 10.8 20.8 24.8 20.8 4 0 9.2-.8 15.2-2.402-5.602 48.402-13.602 66.8-24.801 66.8-9.2 0-13.2-6.8-17.2-14-4.398-7.597-8.8-15.198-20.398-15.198-16 0-28 12.8-28 31.199 0 23.601 24.399 48 61.598 48 49.2 0 77.601-36.399 83.2-99.598.8-8.8 1.6-17.203 2-25.601 10.8.398 24.8 2.8 31.6 2.8 18 0 28.801-9.601 28.801-23.199 0-12-9.601-22-24-25.203-11.601-2.797-22-4-32-4.398l5.2-68.399c12 1.598 23.597 2.399 34.8 2.399Zm0 0"/></svg>