<svg xmlns="http://www.w3.org/2000/svg" width="500" viewBox="0 0 375 375" height="500" version="1.0"><defs><clipPath id="a"><path d="M0 8.906h375v357H0Zm0 0"/></clipPath></defs><path fill="#c3cded" d="M55.957 143.629c0 .695-.066 1.379-.203 2.059-.133.68-.336 1.335-.602 1.976a10.48 10.48 0 0 1-3.882 4.73 10.36 10.36 0 0 1-1.825.977 10.577 10.577 0 0 1-8.07 0 10.36 10.36 0 0 1-1.824-.976 10.475 10.475 0 0 1-2.91-2.907 10.48 10.48 0 0 1-.973-1.824 10.305 10.305 0 0 1-.602-1.976 10.392 10.392 0 0 1-.203-2.06c0-.69.067-1.374.203-2.054.133-.68.336-1.34.602-1.976a10.5 10.5 0 0 1 3.883-4.73 10.36 10.36 0 0 1 1.824-.977c.64-.266 1.297-.465 1.977-.598.68-.137 1.367-.203 2.058-.203.692 0 1.38.066 2.059.203.68.133 1.336.332 1.976.598.64.265 1.25.59 1.825.976a10.475 10.475 0 0 1 2.91 2.906c.383.575.71 1.184.972 1.825.266.636.47 1.297.602 1.976.137.68.203 1.363.203 2.055ZM46.29 159.734h-2.052c-8.203 0-15.234 4.102-19.336 10.25 4.688 6.735 12.305 11.125 21.387 11.125 8.203 0 15.82-4.097 20.508-9.953-4.395-6.734-11.719-11.422-20.508-11.422ZM340.43 143.629c0 .695-.067 1.379-.203 2.059-.133.68-.336 1.335-.602 1.976a10.48 10.48 0 0 1-3.883 4.73 10.36 10.36 0 0 1-1.824.977 10.577 10.577 0 0 1-8.07 0 10.36 10.36 0 0 1-1.825-.976 10.475 10.475 0 0 1-2.91-2.907 10.48 10.48 0 0 1-.972-1.824 10.305 10.305 0 0 1-.602-1.976 10.392 10.392 0 0 1-.203-2.06c0-.69.066-1.374.203-2.054.133-.68.336-1.34.602-1.976a10.5 10.5 0 0 1 3.883-4.73 10.36 10.36 0 0 1 1.824-.977c.64-.266 1.297-.465 1.976-.598.68-.137 1.367-.203 2.059-.203.691 0 1.379.066 2.058.203.68.133 1.336.332 1.977.598.64.265 1.25.59 1.824.976a10.475 10.475 0 0 1 2.91 2.906c.383.575.711 1.184.973 1.825.266.636.469 1.297.602 1.976.136.68.203 1.363.203 2.055ZM330.762 159.734h-2.051c-8.203 0-15.234 4.102-19.336 10.25 4.688 6.735 12.305 11.125 21.387 11.125 8.203 0 15.82-4.097 20.508-9.953-4.102-6.734-11.72-11.422-20.508-11.422Zm0 0"/><g clip-path="url(#a)"><path fill="#c3cded" d="M329.883 111.422c-24.903 0-45.117 20.203-45.117 45.094 0 2.925.293 5.562.879 8.492l-57.13 18.445c-6.152-14.348-19.335-24.598-35.156-26.937V98.828c21.387-3.512 38.086-22.254 38.086-44.8 0-24.887-20.215-45.094-45.117-45.094-24.902 0-45.117 20.207-45.117 45.093 0 23.133 17.871 42.461 40.723 44.801v57.102c-16.407 1.754-30.176 12.297-36.621 26.937l-55.372-17.86c.586-2.636.88-5.566.88-8.491-.294-24.891-20.508-45.094-45.704-45.094C20.215 111.422 0 131.625 0 156.809c0 24.886 20.215 45.093 45.117 45.093 17.871 0 33.399-10.543 40.723-25.476l55.957 18.156c-.293 2.047-.586 4.39-.586 6.734 0 13.47 5.86 25.766 15.527 33.965l-33.691 46.266c-6.445-3.516-14.063-5.856-21.973-5.856-24.902 0-45.117 20.204-45.117 45.094 0 24.887 20.215 45.09 45.117 45.09 24.903 0 45.117-20.203 45.117-45.09 0-12.594-5.273-24.305-13.77-32.504L166.7 241.43c6.153 2.93 12.89 4.687 19.922 4.687 7.617 0 14.941-2.05 21.094-5.273l34.57 47.437c-8.496 8.2-13.77 19.617-13.77 32.211 0 24.887 20.215 45.094 45.118 45.094 24.902 0 45.117-20.207 45.117-45.094 0-24.89-20.215-45.094-45.117-45.094a45.122 45.122 0 0 0-22.266 5.856l-33.984-47.145c8.789-8.199 14.648-19.91 14.648-33.086 0-2.05-.293-4.101-.586-6.152l57.715-18.738c7.324 15.226 22.852 25.77 40.723 25.77 24.902 0 45.117-20.208 45.117-45.094 0-25.184-20.215-45.387-45.117-45.387ZM45.117 190.188c-18.457 0-33.398-15.227-33.398-33.38 0-18.156 14.941-33.675 33.398-33.675s33.399 14.933 33.399 33.383c0 18.445-14.942 33.672-33.399 33.672Zm89.356 130.89c0 18.445-14.942 33.379-33.399 33.379s-33.398-14.934-33.398-33.379c0-18.45 14.941-33.383 33.398-33.383 18.164-.293 33.399 14.934 33.399 33.383Zm172.851 0c0 18.445-14.941 33.379-33.398 33.379s-33.399-14.934-33.399-33.379c0-18.45 14.942-33.383 33.399-33.383 18.457-.293 33.398 14.934 33.398 33.383ZM152.93 54.028c0-18.446 14.941-33.38 33.398-33.38s33.399 14.934 33.399 33.38c0 18.449-14.942 33.382-33.399 33.382-18.457.293-33.398-14.933-33.398-33.383Zm33.691 180.667c-18.457 0-33.398-14.933-33.398-33.379 0-18.449 14.941-33.382 33.398-33.382s33.399 14.933 33.399 33.382c0 18.446-14.942 33.38-33.399 33.38Zm143.262-44.507c-18.457 0-33.399-14.934-33.399-33.38 0-18.449 14.942-33.675 33.399-33.675s33.398 14.933 33.398 33.383c0 18.445-14.941 33.672-33.398 33.672Zm0 0"/></g><path fill="#c3cded" d="M196.875 41.145c0 .69-.066 1.378-.203 2.058a10.39 10.39 0 0 1-.602 1.977c-.261.64-.59 1.246-.972 1.82-.387.578-.82 1.11-1.313 1.598-.488.492-1.023.93-1.597 1.312a10.589 10.589 0 0 1-3.8 1.574c-.681.133-1.368.203-2.06.203-.691 0-1.379-.07-2.058-.203a10.589 10.589 0 0 1-3.801-1.574c-.574-.383-1.11-.82-1.598-1.312A10.313 10.313 0 0 1 177.56 47c-.383-.574-.711-1.18-.973-1.82a10.39 10.39 0 0 1-.602-1.977 10.421 10.421 0 0 1-.203-2.058c0-.692.067-1.38.203-2.055.133-.68.336-1.34.602-1.98a10.446 10.446 0 0 1 2.285-3.419 10.737 10.737 0 0 1 1.598-1.312 10.605 10.605 0 0 1 3.8-1.574 10.72 10.72 0 0 1 4.118 0 10.589 10.589 0 0 1 5.398 2.886 10.5 10.5 0 0 1 2.285 3.418c.266.641.47 1.301.602 1.98.137.677.203 1.364.203 2.056ZM207.422 68.668c-3.809-6.734-11.426-11.418-20.215-11.418h-2.05c-8.204 0-15.235 4.098-19.337 10.25 4.688 6.734 12.305 11.125 21.387 11.125 8.203 0 15.527-3.805 20.215-9.957ZM284.473 307.898c0 .692-.067 1.38-.203 2.059-.133.68-.336 1.336-.602 1.977a10.48 10.48 0 0 1-.973 1.824 10.47 10.47 0 0 1-1.312 1.594c-.488.492-1.024.93-1.598 1.312-.574.387-1.183.711-1.824.973a10.59 10.59 0 0 1-1.977.601c-.68.137-1.367.203-2.058.203-.692 0-1.38-.066-2.059-.203a10.59 10.59 0 0 1-1.976-.601c-.641-.262-1.25-.586-1.825-.973-.574-.383-1.109-.82-1.597-1.312a10.47 10.47 0 0 1-1.313-1.594 10.48 10.48 0 0 1-.972-1.824 10.305 10.305 0 0 1-.602-1.977 10.421 10.421 0 0 1-.203-2.059c0-.691.066-1.375.203-2.054.133-.68.336-1.34.602-1.977a10.5 10.5 0 0 1 2.285-3.422 10.737 10.737 0 0 1 1.597-1.312 10.605 10.605 0 0 1 3.801-1.57c.68-.137 1.367-.204 2.059-.204.691 0 1.379.067 2.058.204.68.132 1.336.332 1.977.597.64.266 1.25.59 1.824.973.574.387 1.11.824 1.598 1.312a10.5 10.5 0 0 1 2.285 3.422c.266.637.469 1.297.602 1.977.136.68.203 1.363.203 2.054ZM274.512 345.379c8.203 0 15.82-4.098 20.508-9.953-4.102-6.738-11.426-11.422-20.215-11.422h-2.051c-8.203 0-15.234 4.101-19.336 10.25 4.687 6.734 12.305 11.125 21.094 11.125ZM111.621 307.898c0 .692-.066 1.38-.203 2.059-.133.68-.336 1.336-.602 1.977a10.48 10.48 0 0 1-.972 1.824 10.47 10.47 0 0 1-1.313 1.594c-.488.492-1.023.93-1.597 1.312-.575.387-1.184.711-1.825.973a10.59 10.59 0 0 1-1.976.601c-.68.137-1.367.203-2.059.203-.691 0-1.379-.066-2.058-.203a10.59 10.59 0 0 1-1.977-.601c-.64-.262-1.25-.586-1.824-.973-.574-.383-1.11-.82-1.598-1.312a10.47 10.47 0 0 1-1.312-1.594 10.48 10.48 0 0 1-.973-1.824 10.305 10.305 0 0 1-.602-1.977 10.421 10.421 0 0 1-.203-2.059c0-.691.067-1.375.203-2.054.133-.68.336-1.34.602-1.977a10.5 10.5 0 0 1 2.285-3.422 10.737 10.737 0 0 1 1.598-1.312 10.605 10.605 0 0 1 3.8-1.57c.68-.137 1.368-.204 2.06-.204.69 0 1.378.067 2.058.204.68.132 1.336.332 1.976.597.641.266 1.25.59 1.825.973.574.387 1.109.824 1.597 1.312a10.5 10.5 0 0 1 2.285 3.422c.266.637.47 1.297.602 1.977.137.68.203 1.363.203 2.054ZM101.953 324.004h-2.05c-8.204 0-15.235 4.101-19.337 10.25 4.688 6.734 12.305 11.125 21.387 11.125 8.203 0 15.82-4.098 20.508-9.953-4.395-6.738-11.719-11.422-20.508-11.422ZM197.168 188.137c0 .695-.066 1.379-.203 2.058-.133.68-.336 1.336-.602 1.977a10.48 10.48 0 0 1-3.883 4.73 10.36 10.36 0 0 1-1.824.977 10.577 10.577 0 0 1-8.07 0 10.36 10.36 0 0 1-1.824-.977 10.475 10.475 0 0 1-2.91-2.906 10.48 10.48 0 0 1-.973-1.824 10.305 10.305 0 0 1-.602-1.977 10.392 10.392 0 0 1-.203-2.058c0-.692.067-1.375.203-2.055.133-.68.336-1.34.602-1.977a10.5 10.5 0 0 1 3.883-4.73 10.36 10.36 0 0 1 1.824-.977c.64-.265 1.297-.464 1.976-.597.68-.137 1.368-.203 2.06-.203.69 0 1.378.066 2.058.203.68.133 1.336.332 1.976.597.64.266 1.25.59 1.824.977a10.475 10.475 0 0 1 2.91 2.906c.383.574.712 1.184.973 1.824.266.637.469 1.297.602 1.977.137.68.203 1.363.203 2.055ZM187.793 204.242h-2.05c-8.204 0-15.235 4.102-19.337 10.25 4.688 6.735 12.305 11.125 21.387 11.125 8.203 0 15.82-4.097 20.508-9.953-4.395-6.734-12.012-11.422-20.508-11.422Zm0 0"/></svg>