<svg xmlns="http://www.w3.org/2000/svg" width="500" viewBox="0 0 375 375" height="500" version="1.0"><defs><clipPath id="a"><path d="M0 106h75v237.297H0Zm0 0"/></clipPath><clipPath id="b"><path d="M73 32.047h227v311.25H73Zm0 0"/></clipPath><clipPath id="c"><path d="M142 170h233v173.297H142Zm0 0"/></clipPath></defs><path d="M117.617 137.414H251.52v10.297H117.617Zm0 0"/><path fill="#178768" d="M123.066 94.336h38.32v19.215h-38.32Zm0 0"/><g clip-path="url(#a)"><path fill="#178768" d="M73.426 342.36a17.764 17.764 0 0 1-.598-.618l-.617-.691-.555-.637-.586-.734-.523-.657c-.188-.246-.363-.503-.547-.761l-.492-.68a21.177 21.177 0 0 1-.516-.793c-.164-.27-.308-.465-.453-.7a31.419 31.419 0 0 1-.484-.823l-.418-.723c-.157-.277-.301-.566-.446-.856-.144-.285-.254-.48-.379-.738-.124-.258-.269-.59-.41-.875l-.34-.754c-.124-.308-.246-.605-.359-.914-.113-.308-.219-.508-.308-.761-.094-.258-.22-.63-.332-.95l-.254-.773c-.106-.317-.2-.649-.29-.977l-.214-.773a12.404 12.404 0 0 1-.239-1.027c-.07-.364-.132-.516-.183-.786-.055-.265-.125-.687-.188-1.027-.062-.34-.101-.516-.144-.781-.04-.27-.09-.735-.145-1.106-.05-.367-.07-.492-.09-.738 0-.422-.074-.844-.105-1.27v-212.99H26.59a25.717 25.717 0 0 0-5.125.511 26.03 26.03 0 0 0-4.926 1.5 25.831 25.831 0 0 0-4.539 2.43 25.861 25.861 0 0 0-3.977 3.273 26.315 26.315 0 0 0-3.266 3.984 25.875 25.875 0 0 0-2.429 4.547 26.77 26.77 0 0 0-.871 2.426 26.345 26.345 0 0 0-1.004 5.059 25.758 25.758 0 0 0-.129 2.574v184.188a26.767 26.767 0 0 0 .508 5.129 26.288 26.288 0 0 0 1.5 4.93c.328.796.695 1.57 1.102 2.331.406.758.847 1.496 1.324 2.211.48.715.992 1.406 1.539 2.074a25.804 25.804 0 0 0 1.73 1.91 26.554 26.554 0 0 0 3.977 3.27 25.831 25.831 0 0 0 4.54 2.43 26.287 26.287 0 0 0 10.047 2.012h47.686l-.215-.22c-.214-.214-.433-.43-.636-.656ZM58.348 162.175h-27.47v70.703h26.524v10.297H20.594v-91.324h37.754Zm0 0"/></g><g clip-path="url(#b)"><path fill="#f4b592" d="M142.648 342.36c-.195-.208-.398-.403-.585-.618-.184-.219-.41-.453-.618-.691-.203-.238-.379-.422-.554-.637-.176-.219-.391-.484-.586-.734l-.524-.657-.554-.761-.485-.68c-.187-.258-.351-.527-.523-.793-.176-.27-.301-.465-.453-.7l-.485-.823-.41-.723c-.156-.277-.3-.566-.453-.856a8.707 8.707 0 0 1-.371-.738c-.113-.258-.277-.59-.41-.875a15.027 15.027 0 0 1-.34-.754c-.102-.246-.246-.605-.371-.914-.125-.308-.207-.508-.297-.761a35.13 35.13 0 0 1-.332-.95c-.102-.32-.184-.515-.266-.773l-.277-.977c-.074-.257-.156-.515-.227-.773-.07-.258-.156-.668-.238-1.027-.082-.364-.121-.516-.172-.786-.05-.265-.137-.687-.195-1.027-.063-.34-.094-.516-.137-.781-.039-.27-.101-.735-.14-1.106-.043-.367-.075-.492-.106-.738 0-.422-.062-.844-.09-1.27 0-.203 0-.398-.054-.605V196.886c.003-1.198.062-2.394.18-3.585a36.261 36.261 0 0 1 1.402-7.035c.347-1.149.75-2.274 1.21-3.38a36.19 36.19 0 0 1 3.38-6.323c.663-1 1.374-1.961 2.136-2.887a36.052 36.052 0 0 1 2.406-2.66 36.047 36.047 0 0 1 2.657-2.41 35.74 35.74 0 0 1 2.882-2.141 35.983 35.983 0 0 1 3.075-1.848 36.95 36.95 0 0 1 6.617-2.75 36.28 36.28 0 0 1 7.023-1.402 36.6 36.6 0 0 1 3.582-.184h130.727V58.301c0-.86-.043-1.719-.129-2.578a26.767 26.767 0 0 0-.379-2.551 27.522 27.522 0 0 0-.629-2.5 26.03 26.03 0 0 0-.87-2.43 25.875 25.875 0 0 0-2.43-4.543 26.315 26.315 0 0 0-3.266-3.984 24.968 24.968 0 0 0-1.906-1.73 27.315 27.315 0 0 0-2.07-1.54 25.831 25.831 0 0 0-4.54-2.43 26.288 26.288 0 0 0-10.047-2.012H99.672c-.86 0-1.719.044-2.574.13a26.21 26.21 0 0 0-7.473 1.883c-.797.328-1.57.695-2.328 1.101a26.285 26.285 0 0 0-4.281 2.867 25.804 25.804 0 0 0-1.91 1.73 27.647 27.647 0 0 0-1.731 1.911 28.427 28.427 0 0 0-1.535 2.074 26.884 26.884 0 0 0-1.324 2.211 25.408 25.408 0 0 0-1.102 2.332 26.288 26.288 0 0 0-1.879 7.48c-.086.86-.129 1.72-.129 2.579v258.636c0 .86.043 1.72.13 2.579.081.855.21 1.707.378 2.55a26.288 26.288 0 0 0 1.5 4.93c.328.797.695 1.57 1.102 2.332.406.758.847 1.496 1.324 2.211.48.715.992 1.406 1.535 2.074a27.717 27.717 0 0 0 1.73 1.91 26.554 26.554 0 0 0 3.98 3.27 26.285 26.285 0 0 0 9.462 3.93 26.78 26.78 0 0 0 2.55.382c.856.086 1.716.13 2.575.13h43.832l-.207-.22c-.227-.214-.43-.43-.649-.656Zm107.586-220.4h-63.949v-10.296h63.95Zm-64.289-35.726h63.973v10.297h-63.973Zm-73.191 28.829V92.78a8.662 8.662 0 0 1 .668-3.344 8.515 8.515 0 0 1 .808-1.511 8.85 8.85 0 0 1 2.41-2.414 8.763 8.763 0 0 1 1.512-.805 8.52 8.52 0 0 1 1.637-.5 8.937 8.937 0 0 1 1.707-.168h41.414a8.9 8.9 0 0 1 3.34.668 9.172 9.172 0 0 1 1.508.809 8.85 8.85 0 0 1 2.41 2.414 8.867 8.867 0 0 1 1.305 3.148 8.62 8.62 0 0 1 .168 1.703v22.324a8.643 8.643 0 0 1-.668 3.344 8.867 8.867 0 0 1-.805 1.508 9.07 9.07 0 0 1-1.086 1.324c-.406.406-.848.77-1.324 1.086-.477.32-.98.59-1.508.809a8.605 8.605 0 0 1-3.34.668h-41.387c-.57 0-1.14-.055-1.703-.168a8.51 8.51 0 0 1-1.636-.496 8.515 8.515 0 0 1-1.512-.809 8.593 8.593 0 0 1-1.324-1.086 8.593 8.593 0 0 1-1.086-1.324c-.32-.477-.59-.98-.809-1.512a8.643 8.643 0 0 1-.668-3.344Zm0 0"/></g><path fill="#178768" d="M278.3 216.457h38.321v19.215h-38.32Zm0 0"/><g clip-path="url(#c)"><path fill="#f2ce80" d="M348.41 170.621H168.906a26.503 26.503 0 0 0-5.117.508 26.288 26.288 0 0 0-15.168 9.101 25.834 25.834 0 0 0-2.86 4.277 26.03 26.03 0 0 0-2.605 7.254 25.7 25.7 0 0 0-.516 5.125v120.051a26.767 26.767 0 0 0 .508 5.129 26.287 26.287 0 0 0 1.5 4.93 26.237 26.237 0 0 0 2.426 4.543c.48.715.992 1.406 1.535 2.074a27.717 27.717 0 0 0 1.73 1.91 26.554 26.554 0 0 0 3.98 3.27c.716.477 1.454.922 2.212 1.328.758.406 1.535.774 2.328 1.102.793.332 1.602.62 2.426.87a26.513 26.513 0 0 0 5.047 1.012c.856.086 1.715.13 2.574.13H348.41a25.758 25.758 0 0 0 5.121-.512 26.287 26.287 0 0 0 13.442-7.2 25.08 25.08 0 0 0 1.73-1.914 26.554 26.554 0 0 0 1.54-2.07c.476-.715.917-1.453 1.323-2.21.407-.763.774-1.536 1.102-2.333a26.288 26.288 0 0 0 1.879-7.48c.086-.86.129-1.72.129-2.578V196.887c0-.864-.047-1.719-.133-2.575a26.287 26.287 0 0 0-9.488-17.723 26.176 26.176 0 0 0-6.605-3.96 26.288 26.288 0 0 0-7.469-1.879 25.68 25.68 0 0 0-2.57-.129Zm-91.53 124.645h-63.97v-10.297h63.969Zm0-25.434h-63.97v-10.297h63.969Zm70.058-32.605a8.833 8.833 0 0 1-.668 3.344 9.053 9.053 0 0 1-.808 1.511 8.85 8.85 0 0 1-2.414 2.41 8.618 8.618 0 0 1-3.149 1.305 8.594 8.594 0 0 1-1.703.168H276.75a8.594 8.594 0 0 1-3.34-.668 8.757 8.757 0 0 1-1.512-.805 8.82 8.82 0 0 1-3.214-3.922 8.631 8.631 0 0 1-.497-1.64 8.598 8.598 0 0 1-.171-1.703v-22.313c0-.574.058-1.144.168-1.707.113-.562.277-1.11.496-1.64a8.776 8.776 0 0 1 4.726-4.735 8.605 8.605 0 0 1 3.344-.668h41.414a8.643 8.643 0 0 1 3.344.668 8.652 8.652 0 0 1 1.512.809c.476.32.918.683 1.324 1.086.402.406.765.851 1.086 1.328a8.631 8.631 0 0 1 1.305 3.152c.113.563.171 1.133.171 1.707Zm0 0"/></g></svg>