<svg xmlns="http://www.w3.org/2000/svg" width="400" viewBox="0 0 300 75" height="100" version="1.0"><defs><clipPath id="a"><path d="M0 5.434h300v64.5H0Zm0 0"/></clipPath></defs><g clip-path="url(#a)"><path fill="#f3c610" d="M246.676 16.922c4.449-.227 8.875-.567 13.316-.84 8.903-.492 17.715-1.312 26.57-1.992-.433 2.281-.84 4.652.442 6.617 0 0 1.371-.18 3.066-.508l5.098-.926c11.504 3.368 9.922 11.29 4.871 17.668-1.312 1.348-2.797 2.868-4.48 4.422l-4.247.094c-6.398.176-12.699.484-19.058 1.023-6.32.383-12.664.903-19.094 1.477-12.836 1-16.637 2.133-30.512 2.309-19.468-.305 19.329-1.52 0 0 22.954-.809-14.363 1.656 8.989.375 5.847-.293 2.316-.586 8.125-.88 5.82-.21 11.617-.425 17.379-.632 5.78-.211 11.507-.234 17.246-.324 5.754-.137 11.441-.094 17.152-.04-4.3 3.25-9.516 6-15.84 6.919-15.078.992-29.949 1.972-44.691 2.941-.067-1.09-11.524.89-21.656 1.543-10.125.582-20.098-1.418-30.141-1.184-20.094.536-60.094 6.786-60.371 7.504-.102.008-.2.02-.293.028.094-.008.191-.02.293-.028-.25.633-.059 1.094 2.52.914-2.579.18-2.77-.28-2.52-.914 40.742-3.941 69.527-5.812 110.492-7.738-31.77 2.133-53.46 4.645-84.71 7.25-31.243 2.59-62.665 5.21-95.071 7.203-2.758.172-8.285.508-11.051.676-11.168-2.574-22.266-3.004-33.293-2.371 2.566-5.555-8.855-15.711 13.305-14.832-.04-1.078-.114-3.239-.153-4.317C7.203 46.31-.477 41.602-2.92 36.758c-1.126-2.41-.985-4.918 1.034-7.149C.215 27.367 3.72 25.41 9.211 24.012c24.644-5.746 57.855-3.442 88.047-7.649 21.984-2.554 43.941-5.215 66.02-4.773 30.394.883 53.925-3.008 84.234-2.04 5.492-.09 12.937-1.55 19.726-2.632 6.754-1.156 12.782-2.082 15.637-.844 4.02.989 4.406 3.246 4.055 5.88-8.95 1.081-17.844 2.316-26.817 3.171-4.476.457-8.93.973-13.402 1.36-4.473.37-8.934.738-13.383 1.109"/></g><path d="M133.45 16.924c-.164.168-1.332.25-1.578.293-1.293.25-2.582.418-3.832.582-2.496.332-5.121.293-7.578.707.043-1.289-2.121-3.37-3.078-1.789-.293.457-.375 1.082-.543 1.582-.164.543-.164.457-.625.582-.332.125-.832.125-1.164.125-.582.086-1.125.086-1.707.125-.75.043-1.582 0-1.872.832-.71 2.207 2.704 2.29 3.997 2.207-.211.582-.375 1.168-.625 1.79-.043.167-.543 1.667-.457 1.667l.246-.336c-.582 1.583-1.579 3.29-2.29 4.958-.414.996-.746 1.957-1.081 2.953-.25.793-.25.875-1.083 1.082l-1.25.21c-.289.04-.664.083-.914.333-1.082 1.164 1 2.082 1.957 2.039-.25.668-3.082 7.992-3.12 7.992 0 .043.288-.54.62-1.371l-1.332 3.37c0-.085.043-.167.043-.206-.168 0-.789 1.746-.664 1.746l.164-.168c-.207.5-.539.668-.457 1.375.125.75.625 1.375 1.25 1.79.54.374 1.707 1.042 2.371.835.625-.21.168-.168.418-.46 1-1.122 1.207-2.954 1.707-4.454.125-.418 1.707-5.328 1.665-5.371l-.168.168c.125-.332.25-.75.418-1.125.042.043-.125.332-.043.332.25.043 1.207-2.828 1.293-3.04.207-.62.164-1.495.457-2.077.289-.543.707-.5 1.289-.543.543-.043.918-.25 1.25-.418.5-.207 1.125-.121 1.625-.246.664-.168 1.289-.25 1.953-.418.71-.125.96-.418 1.457-.543.543-.125 2.043-.04 2.207-.79.168-.792-.457-.292-.54-.292-1.331.086-2.663-.125-3.995 0-1.418.086-2.79.21-4.207.336 0-.043.168-.918-.04-.543l.126-.332v.125c.082 0 .582-1.625.746-1.875.586-1.082 1-2.372 1.375-3.579.375-1.25.707-2.5 1.082-3.707l.332-.914c.21-.625.086-.543.625-.707.5-.125 1.207-.168 1.707-.21 2.207-.165 4.246-.75 6.453-1.333.543-.125 1.5-.332 1.957-.707.418-.332.332-.414.875-.582.289-.082 3.289-1.582 2.578-2Zm-19.773 19.567a121.689 121.689 0 0 1-1.747 5.164c-.542 1.37-1.292 2.703-1.789 4.078 1.04-3.121 2.372-6.203 3.536-9.324v.043c-.04.164-.04.125 0 .039Zm-3.536.332-.543 1.293c.168-.5.418-1.25.543-1.293Zm3.579-.54v.044c-.043.039-.043.039-.043.082 0-.043 0-.082.043-.125Zm0 0c0-.042 0-.081.043-.124v.043s-.043.039-.043.082ZM143.151 41.944a21.816 21.816 0 0 0-2.871-.082c-2.875.168-5.746.875-8.492 1.707 2.082-5.29 3.12-10.906 4.91-16.32.875-2.622 1.832-5.536 3.539-7.743.375-.5 1.29-1.62 2.082-1.414.664.207.332 1.914.207 2.371.168-.582.875-2.953-.832-2.332-1.832.668-2.914 3.332-3.621 4.957.625-1.5 1.332-3.164 2.496-4.332.5-.457 1.707-1.37 2.25-.582.5.75-.125 2.457-.332 3.164a28.675 28.675 0 0 1-1.582 4.04c0-.087.539-1.419.496-1.419-.164-.039-1.621 3-1.621 3.04h.043c-.043.085-.125.125-.125.125-.336.625.332.917.871.957.832.085 1.75-.332 2.414-.832 1.75-1.333 3.25-4.454 3.125-6.66-.125-1.79-.793-3.079-2.539-4.04-.957-.539-2.168-.957-3.332-.87-1.664.081-2.957 1.163-3.871 2.495-.707 1.082-1.164 2.25-1.582 3.414l-.582 1.75c-.168.457-.625 1.207-.543 1.664 0 .082.293-.543.336-.582-.25.79-.461 1.621-.711 2.454-.04-.04.125-.622.086-.622-.211 0-.918 2.664-1 2.872-.418 1.5-.875 3.039-1.043 4.62-.164 1.458-.371 2.79-.746 4.204-.168.793-.418 1.543-.625 2.332-.125.543-.793 2.039-.582 2.582.039.039.082.039.125 0-.125.375-.168.707-.293 1.039 0 0 .207-.875.168-.875-.211.125-.25 1.125-.25 1.082-.25.668-1.043.668-1.668.96-.54.208-.996.54-1.414.958-.875.871-1.996 2.414-1.582 3.785.293 1 1.414 1.25 2.332 1.125.414-.082 1.707-.5 1.625-1.039-.043-.086-.668.332-.875.414.289-.207.625-.5.875-.746-.043.121.789-.793.87-.918.462-.625 1-.875 1.669-1.207 1.12-.625 2.289-1.207 3.496-1.625 2.582-.914 5.41-.996 7.867-2.246.625-.293 2.29-1.457.832-1.625Zm-8.785-18.11c.586-1.703 1.332-3.285 2.418-4.742.871-1.207 1.871-1.957 3.203-2.25-3.328.832-4.496 5.41-5.785 8.242-.418 1-.793 2-1.125 3.082.375-1.457.832-2.875 1.289-4.332Zm2.207 3.25v-.043.083l-.957 2.875c.293-1 .625-1.958.957-2.958Zm-9.074 23.27s0-.043.043-.043ZM163.01 28.874c-.043.25.082.582.082.832.043 1.289-.25 2.582-.543 3.789a34.474 34.474 0 0 1-3.285 8.492c-.711 1.332-1.5 2.62-2.418 3.828a14.578 14.578 0 0 1-1.332 1.5c-.25.25-1.332 1-1.371 1.375 0 .039.957-.625 1.039-.668-.375.332-.75.668-1.164.957.207-.207-.668.293-.668.293a6.842 6.842 0 0 1-1.125.539c-.664.25-1.457.461-2.203.418-2-.168-2.168-2.29-2.043-3.871.336-4.328 2.082-8.91 3.875-12.863 1.87-4.121 4.12-8.329 7.117-11.739.5-.543 1.375-1.543 2.246-2.168-1.621 1-2.953 2.707-4.035 4.207 1.12-1.582 2.496-3.37 4.203-4.414.789-.457 2.082-.914 2.332.293.25 1.164-.543 2.621-1.043 3.578-.914 1.668-2.078 3.164-3.496 4.372.086-.125 1.25-1.333 1.25-1.333-.125-.039-1.5 1.25-1.625 1.375-.082.083-1.621 1.125-1.707 1.165h.043c-.168.085-.293.125-.293.168-.457.664.75 1.164 1.25 1.207 1.207.207 2.414-.832 3.289-1.54 1.75-1.332 3.457-3.039 4.664-4.914.496-.75 1.121-2.12 1.039-3.078-.168-1.75-2.082-3.539-3.621-4.246-1.457-.625-2.996.082-4.29.832-1.956 1.121-3.577 2.79-4.995 4.578-.625.79-1.207 1.625-1.832 2.457l-.871 1.246c-.125.168-.336.625-.5.875l.082-.082-1.164 1.872.25-.457c-.211-.04-1.125 1.625-1.207 1.832-.461.707-.836 1.457-1.207 2.207-.875 1.707-1.668 3.453-2.125 5.37-.458 1.872-1.083 3.704-1.333 5.66-.082.833-.167 1.665-.082 2.497 0 .21.582 2.043.582 2.043v-.086c.125.336.25.71.458 1.125-.083-.168-.375-.54-.415-.75.04.336.582 1 .622 1.082 1.332 2.414 3.664 4.832 6.66 4.54 4.914-.5 8.41-5.954 10.574-9.907 1.293-2.332 2.457-4.79 3.082-7.41.457-1.875 1.082-4.121.125-5.996-.375-.707-2.54-2.79-2.871-1.082Zm-16.488 8.199c-.664 1.875-1.414 3.957-1.704 5.953.247-1.996.832-3.996 1.457-5.867.958-2.957 2.372-5.914 4.036-8.535 1.668-2.583 3.457-5.079 5.496-7.368.5-.5 1-1.082 1.582-1.582-.625.582-1.207 1.246-1.707 1.79-1.957 2.206-3.496 4.788-5.04 7.285-1.577 2.62-3.12 5.41-4.12 8.324Zm16.363-18.024c.582.082.746.582.707 1.164.082-.832-.207-1.457-1.25-1.12.168-.044.332-.044.543-.044Zm.25 2.871c.207-.457.414-1 .457-1.582-.082.543-.293 1.125-.457 1.582Zm-8.828 6.454-.04.042.04-.042.043-.043-.168.293-.832 1.375.918-1.583c-.043.04-.043.083-.043.083 0-.043.043-.083.082-.125Zm8.703-6.079-.211.418c.043-.043.125-.168.21-.418Zm-8.617 5.954-.043.042-.043.04.293-.497Zm7.324-8.95-.164.082c.039 0 .082 0 .164-.082Zm-8.492 10.989-.125.168ZM204.803 17.885c-.039-.086 0-.043 0-.043-.207-.543-.914-1.375-1.582-1.25-.5.082-.332.293-.539.543-.832.996-1.793 1.871-2.582 2.871-2.082 2.621-3.87 5.496-5.66 8.325-1.793 2.832-3.457 5.664-4.832 8.703-.582 1.289-1.371 2.457-1.996 3.703-.875 1.707-1.625 3.496-2.375 5.246 0-.082.086-2-.04-1.914-.085.082-.124.125-.124.164.082-.914.414-2.04.582-3.04.25-1.456.375-2.913.5-4.37.082-.457.832-4.992 1.289-7.242-.29 1.125-.625 2.707-.707 2.87.375-1.952.789-3.91 1.457-5.827-.043.167-.043.335.043.335.125 0 .582-1.332.457-1.375l-.168.125c.168-.375.5-.418.457-1.039a2.133 2.133 0 0 0-.789-1.5c-.332-.332-.957-.707-1.457-.582-.457.125-.418.375-.582.582-1.582 1.996-3.496 4.164-5.04 6.368-.5.668-.75 1.375-1.245 2.082-.918 1.168-1.75 2.414-2.707 3.539-.957 1.207-1.5 2.457-2.375 3.664l-2.203 3.164c.746-2.746 1.207-5.535 1.746-8.324.125-.711 1.5-8.286 1.5-8.286-.043 0-.875 4.41-1 4.872.457-2.415.957-4.915 1.207-7.372 0-.039-.043.75 0 .711.207 0 .293-1.75.125-1.707-.043.04-.082.082-.082.125 0-.375.207-.668.207-1.21-.043-.872-.168-1.704-.54-2.497-.292-.625-.71-1.289-1.417-1.414-.164-.043-.207.082-.414.04-.211 0-.25-.165-.461-.165-.914.04-1.621.914-1.953 1.664-.461.875-1 3.871.914 2.582 0 .207-.125 2.207-.168 2.332.086-.043.086-.125.125-.21-.04.417-.082.792-.164 1.167-.043-.043.039-.336-.043-.336-.375 0-.75 3.625-.75 4.082-.04.833-.207 1.583-.414 2.415-.086.375-.168.75-.211 1.125-.04.039-.082.996.043.746 0 .086-.043.125-.043.21-.04-.042-.04-.085-.04-.124-.042.039-.25 1.37-.292 1.414-.207.707-.5 1.332-.707 2.039-.457 1.668-.707 3.375-1.125 5.039 1.082-3.29 2.082-6.785 2.789-10.156.543-2.708 1.293-5.622 1.5-8.41-.207 3.413-.875 6.867-1.707 10.113-.5 2-1.04 4-1.582 5.996-.543 2.039-1.457 3.996-1.957 6.078a32.73 32.73 0 0 1-.79 2.664c-.335.957-.585 2 .458 2.621 1.082.625 3.039.375 3.578-.871.086-.211.125-.418.168-.625.375-1.207 1.207-2.29 1.832-3.371 1.125-1.957 2.289-3.914 3.578-5.79 1.332-2.038 2.707-3.995 3.957-6.077.582-.957 1.457-1.79 2.12-2.703l1.583-2.043c-.082.21-.582 2.5-.625 2.5.043 0 .043-.043.086-.043-.086.25-.125.543-.168.793-.082 0 .043-.25-.043-.25-.54-.086-.871 3.414-.871 3.664-.086.664-.293 1.332-.418 1.996-.125.543-.043 1-.043 1.375-.04-.086-.04.457-.082.582-.043.457-.168.625-.29 1.039-.335.96-.417 2.082-.46 3.039-.04 1.832-.25 3.832 0 5.621.168 1.414 1.543 2.621 3 2.496.789-.082.957-.414 1.121-1.082.125-.582.418-1.164.707-1.789 1.043-2.207 2.082-4.453 3.25-6.578.75-1.371 1.164-2.746 1.914-4.035 1-1.75 1.957-3.5 3.04-5.164.5-.79.874-1.582 1.206-2.371.457-1 1.332-1.875 1.957-2.79.707-1 1.332-2 2.121-3 .711-.87 1.582-1.746 2.168-2.703.246-.418.082-.418.457-.793.25-.25.625-.539.957-.789.664-.543 1.996-1.082 1.664-2.164Zm-18.484 16.11c-.04.125.086-.168.21-.457 0-.043.04-.086.04-.125-.125.582-.25 1.039-.332 1.539 0-.293-.043-.543.082-.957Zm1.5-5.621c-.043 0-.125.207-.207.625.082-.375.207-.625.207-.625Zm0 0" fill="#222"/></svg>