<svg xmlns="http://www.w3.org/2000/svg" width="500" viewBox="0 0 375 150" height="200" version="1.0"><defs><clipPath id="a"><path d="M3.344 36.836h368.25v78.75H3.344Zm0 0"/></clipPath></defs><g clip-path="url(#a)"><path fill="#f3c610" d="M305.969 50.86c5.46-.274 10.89-.692 16.34-1.024 10.921-.602 21.734-1.598 32.593-2.43-.527 2.785-1.027 5.68.543 8.078 0 0 1.684-.218 3.762-.62l6.254-1.13c14.113 4.11 12.172 13.786 5.976 21.57-1.609 1.645-3.43 3.505-5.496 5.4-1.742.038-3.484.077-5.207.112-7.851.215-15.582.594-23.382 1.25-7.754.473-15.54 1.102-23.426 1.801-15.746 1.227-20.41 2.61-37.434 2.824-23.883-.375 23.715-1.859 0 0 28.16-.988-17.62 2.024 11.028.457 7.171-.359 2.843-.718 9.968-1.074 7.14-.258 14.25-.52 21.32-.773 7.094-.258 14.118-.285 21.16-.399 7.06-.164 14.036-.113 21.044-.047-5.278 3.97-11.676 7.329-19.434 8.454-18.5 1.21-36.742 2.402-54.828 3.586-.086-1.329-14.14 1.09-26.57 1.886-12.422.707-24.657-1.73-36.977-1.445-24.652.648-73.726 8.281-74.066 9.16-.125.012-.242.024-.36.031.118-.007.235-.02.36-.03-.305.769-.075 1.335 3.09 1.112-3.165.223-3.395-.34-3.09-1.113 49.984-4.812 85.297-7.094 135.554-9.45-38.976 2.602-65.586 5.673-103.921 8.852-38.333 3.16-76.88 6.364-116.637 8.797l-13.559.828c-13.699-3.144-27.316-3.668-40.844-2.898 3.149-6.785-10.863-19.18 16.32-18.11l-.187-5.269C12.18 86.742 2.758 80.992-.242 75.078c-1.383-2.941-1.211-6 1.27-8.723 2.577-2.742 6.874-5.128 13.613-6.835 30.234-7.016 70.98-4.2 108.023-9.336 26.969-3.121 53.906-6.371 80.992-5.829 37.29 1.075 66.156-3.675 103.34-2.492 6.738-.11 15.871-1.894 24.2-3.215 8.284-1.41 15.679-2.543 19.187-1.03 4.93 1.206 5.402 3.964 4.969 7.179-10.973 1.32-21.887 2.828-32.895 3.875-5.492.555-10.957 1.183-16.445 1.656-5.485.453-10.957.902-16.414 1.356"/></g><path d="M157.446 40.46c-.301.3-2.415.453-2.868.527-2.343.453-4.683.758-6.949 1.058-4.531.606-9.289.528-13.746 1.286.078-2.344-3.852-6.118-5.586-3.25-.531.832-.68 1.964-.984 2.87-.301.985-.301.833-1.133 1.06-.602.226-1.508.226-2.113.226-1.059.152-2.04.152-3.098.226-1.36.075-2.871 0-3.398 1.512-1.286 4 4.91 4.152 7.25 4-.375 1.059-.68 2.117-1.133 3.25-.074.3-.98 3.02-.832 3.02l.453-.606c-1.055 2.871-2.867 5.969-4.153 8.988-.753 1.813-1.359 3.551-1.964 5.364-.453 1.433-.453 1.586-1.961 1.96l-2.266.38c-.531.074-1.21.152-1.664.605-1.96 2.113 1.813 3.773 3.55 3.7-.452 1.206-5.59 14.5-5.663 14.5 0 .077.527-.981 1.133-2.493l-2.418 6.117c0-.148.078-.3.078-.375-.305 0-1.438 3.172-1.211 3.172l.304-.305c-.378.907-.984 1.211-.832 2.493.227 1.359 1.133 2.492 2.266 3.25.98.68 3.098 1.886 4.305 1.507 1.133-.375.3-.3.754-.828 1.812-2.039 2.191-5.363 3.097-8.082.227-.754 3.098-9.668 3.02-9.742l-.301.3c.227-.6.453-1.359.754-2.038.078.078-.227.605-.074.605.453.074 2.191-5.136 2.34-5.511.378-1.137.304-2.723.832-3.778.527-.984 1.285-.906 2.343-.984.98-.074 1.66-.453 2.266-.754.906-.379 2.039-.227 2.945-.453 1.207-.301 2.34-.453 3.547-.754 1.285-.227 1.738-.758 2.645-.984.98-.227 3.699-.075 4.004-1.434.3-1.434-.832-.527-.985-.527-2.414.148-4.832-.227-7.25 0-2.566.148-5.058.375-7.625.601 0-.074.301-1.66-.078-.98l.227-.606v.227c.152 0 1.058-2.946 1.359-3.399 1.059-1.96 1.813-4.304 2.492-6.492.68-2.265 1.285-4.531 1.965-6.723l.606-1.66c.375-1.132.148-.984 1.132-1.285.907-.226 2.188-.3 3.094-.379 4.004-.3 7.703-1.36 11.707-2.414.98-.226 2.719-.605 3.55-1.285.755-.605.602-.754 1.587-1.059.527-.148 5.965-2.87 4.68-3.625Zm-35.872 35.496c-.984 3.097-2.039 6.27-3.171 9.367-.985 2.492-2.344 4.906-3.25 7.398 1.89-5.664 4.304-11.25 6.421-16.918v.078c-.078.301-.078.227 0 .075Zm-6.421.605-.98 2.34c.3-.906.753-2.266.98-2.34Zm6.496-.984v.078c-.075.074-.075.074-.075.148 0-.074 0-.148.075-.226Zm0 0c0-.075 0-.149.074-.227v.078s-.074.074-.074.149ZM175.046 85.85c-1.664-.152-3.477-.226-5.211-.152-5.211.304-10.422 1.586-15.41 3.097 3.777-9.59 5.668-19.789 8.914-29.605 1.586-4.758 3.324-10.043 6.418-14.047.68-.906 2.343-2.945 3.777-2.57 1.207.379.605 3.476.379 4.308.3-1.058 1.586-5.363-1.512-4.23-3.324 1.207-5.285 6.043-6.57 8.988 1.133-2.719 2.418-5.742 4.531-7.855.906-.832 3.098-2.493 4.078-1.059.906 1.36-.226 4.457-.605 5.742a50.574 50.574 0 0 1-2.867 7.324c0-.152.98-2.566.906-2.566-.305-.078-2.946 5.438-2.946 5.512h.075a.546.546 0 0 1-.227.226c-.605 1.133.606 1.66 1.586 1.739 1.512.148 3.172-.606 4.379-1.512 3.172-2.418 5.89-8.082 5.664-12.082-.227-3.25-1.434-5.59-4.605-7.328-1.739-.98-3.926-1.739-6.043-1.586-3.02.152-5.36 2.113-7.024 4.531-1.281 1.965-2.113 4.078-2.867 6.195l-1.059 3.172c-.3.828-1.132 2.188-.98 3.02 0 .152.527-.98.601-1.059-.453 1.438-.828 2.946-1.28 4.457-.079-.074.226-1.133.148-1.133-.375 0-1.66 4.832-1.813 5.211-.754 2.72-1.586 5.512-1.887 8.383-.304 2.645-.68 5.059-1.359 7.63-.305 1.433-.758 2.792-1.133 4.23-.226.98-1.437 3.699-1.058 4.68.074.077.152.077.226 0-.226.679-.3 1.284-.527 1.89 0 0 .375-1.586.3-1.586-.378.226-.452 2.039-.452 1.96-.454 1.212-1.887 1.212-3.02 1.74-.984.378-1.812.98-2.57 1.737-1.586 1.586-3.625 4.38-2.867 6.872.527 1.812 2.566 2.265 4.226 2.039.758-.153 3.098-.907 2.945-1.887-.074-.152-1.207.601-1.586.754a13.587 13.587 0 0 0 1.586-1.36c-.074.227 1.438-1.433 1.586-1.66.832-1.133 1.813-1.586 3.024-2.191 2.039-1.133 4.152-2.192 6.344-2.945 4.683-1.66 9.816-1.813 14.273-4.079 1.133-.527 4.152-2.644 1.512-2.945ZM159.108 53c1.059-3.098 2.418-5.97 4.383-8.61 1.586-2.191 3.398-3.55 5.812-4.082-6.039 1.512-8.156 9.82-10.496 14.957a61.954 61.954 0 0 0-2.039 5.586c.68-2.64 1.512-5.21 2.34-7.851Zm4.004 5.89v-.078.152l-1.738 5.211c.531-1.812 1.133-3.55 1.738-5.363Zm-16.465 42.215s0-.074.074-.074ZM211.068 62.135c-.074.453.152 1.059.152 1.512.074 2.34-.453 4.68-.98 6.871-1.285 5.363-3.324 10.574-5.969 15.406-1.281 2.418-2.719 4.758-4.379 6.95a28.128 28.128 0 0 1-2.418 2.718c-.453.453-2.414 1.813-2.492 2.492 0 .075 1.738-1.132 1.89-1.207-.68.602-1.359 1.207-2.117 1.735.38-.375-1.207.531-1.207.531-.605.375-1.285.68-2.039.98-1.21.454-2.644.833-4.004.754-3.625-.3-3.925-4.152-3.699-7.023.602-7.852 3.774-16.16 7.024-23.336 3.398-7.477 7.476-15.105 12.914-21.297.906-.98 2.492-2.793 4.078-3.926-2.946 1.813-5.364 4.907-7.324 7.625 2.039-2.867 4.53-6.117 7.625-8.004 1.437-.832 3.777-1.66 4.23.528.453 2.117-.98 4.758-1.887 6.496-1.664 3.02-3.777 5.738-6.343 7.93.148-.227 2.265-2.418 2.265-2.418-.226-.075-2.719 2.265-2.945 2.492-.152.152-2.945 2.039-3.098 2.117h.074c-.3.148-.527.227-.527.3-.832 1.208 1.36 2.114 2.266 2.192 2.191.375 4.379-1.512 5.965-2.797 3.171-2.414 6.27-5.511 8.46-8.91.907-1.36 2.04-3.851 1.887-5.59-.3-3.172-3.777-6.418-6.57-7.703-2.645-1.133-5.438.153-7.777 1.512-3.551 2.039-6.497 5.059-9.063 8.309-1.137 1.433-2.191 2.945-3.324 4.453l-1.586 2.265c-.227.305-.606 1.133-.906 1.586l.148-.148-2.113 3.398.453-.832c-.379-.074-2.04 2.945-2.191 3.324-.829 1.282-1.508 2.641-2.188 4-1.586 3.098-3.023 6.27-3.852 9.743-.832 3.402-1.964 6.722-2.418 10.273-.152 1.512-.3 3.02-.152 4.531 0 .38 1.059 3.7 1.059 3.7v-.149c.226.602.453 1.281.832 2.04-.153-.306-.68-.985-.758-1.36.078.601 1.059 1.812 1.133 1.96 2.418 4.383 6.648 8.762 12.086 8.235 8.91-.906 15.254-10.8 19.183-17.977 2.34-4.226 4.453-8.683 5.586-13.44.832-3.4 1.965-7.477.227-10.876-.68-1.285-4.606-5.062-5.211-1.965Zm-29.906 14.88c-1.207 3.398-2.567 7.175-3.098 10.8.453-3.625 1.512-7.25 2.644-10.652 1.739-5.36 4.305-10.723 7.325-15.48 3.023-4.684 6.27-9.216 9.972-13.368.907-.906 1.813-1.965 2.868-2.871-1.133 1.058-2.188 2.265-3.094 3.25-3.551 4-6.348 8.683-9.14 13.215-2.872 4.757-5.665 9.816-7.477 15.105Zm29.68-32.704c1.058.152 1.359 1.059 1.284 2.117.153-1.512-.378-2.644-2.265-2.039.3-.078.605-.078.98-.078Zm.452 5.21c.38-.827.758-1.812.832-2.866-.152.98-.527 2.039-.832 2.867ZM195.287 61.23l-.079.074.079-.074.074-.074-.301.527-1.512 2.492 1.66-2.87c-.074.077-.074.152-.074.152 0-.075.074-.153.153-.227Zm15.78-11.027-.374.757c.074-.078.226-.304.375-.757Zm-15.632 10.8-.074.075-.074.078.527-.906Zm13.293-16.238-.3.152c.073 0 .148 0 .3-.152Zm-15.406 19.938-.227.304ZM286.896 42.198c-.078-.153 0-.078 0-.078-.379-.98-1.664-2.493-2.871-2.266-.906.152-.605.531-.98.984-1.512 1.813-3.25 3.399-4.684 5.211-3.777 4.758-7.023 9.969-10.273 15.106-3.247 5.133-6.266 10.27-8.758 15.781-1.059 2.344-2.492 4.457-3.625 6.723-1.586 3.097-2.946 6.343-4.305 9.515 0-.148.148-3.625-.078-3.472-.149.152-.227.226-.227.3.153-1.66.758-3.699 1.059-5.511.453-2.645.68-5.285.906-7.93.153-.832 1.512-9.062 2.34-13.14-.527 2.038-1.133 4.906-1.281 5.21.68-3.55 1.433-7.101 2.64-10.574-.074.3-.074.606.079.606.226 0 1.054-2.418.828-2.493l-.301.227c.3-.68.906-.758.832-1.89a3.903 3.903 0 0 0-1.438-2.72c-.601-.601-1.734-1.28-2.64-1.054-.832.226-.758.68-1.059 1.055-2.87 3.625-6.344 7.554-9.137 11.554-.906 1.211-1.359 2.492-2.265 3.778-1.664 2.113-3.172 4.379-4.91 6.418-1.739 2.191-2.72 4.457-4.305 6.648l-4.004 5.738c1.36-4.984 2.192-10.043 3.172-15.105.227-1.281 2.719-15.028 2.719-15.028-.074 0-1.586 8.004-1.813 8.836.832-4.378 1.739-8.91 2.192-13.367 0-.074-.078 1.36 0 1.285.375 0 .527-3.171.226-3.097-.078.074-.152.152-.152.226 0-.68.379-1.207.379-2.191-.078-1.586-.305-3.094-.985-4.531-.527-1.133-1.28-2.34-2.566-2.567-.3-.078-.379.149-.754.074-.379 0-.453-.3-.832-.3-1.66.074-2.945 1.66-3.55 3.02-.829 1.585-1.813 7.023 1.663 4.683 0 .379-.226 4.004-.304 4.23.152-.078.152-.226.226-.379-.074.754-.148 1.434-.3 2.114-.075-.075.074-.602-.075-.602-.68 0-1.36 6.57-1.36 7.399-.077 1.511-.378 2.87-.757 4.382-.148.68-.3 1.36-.375 2.04-.078.074-.152 1.812.074 1.359 0 .148-.074.226-.074.375-.078-.074-.078-.149-.078-.227-.074.078-.453 2.492-.527 2.57-.38 1.282-.907 2.415-1.286 3.7-.828 3.02-1.28 6.117-2.039 9.14 1.965-5.968 3.778-12.312 5.063-18.43.98-4.91 2.34-10.195 2.719-15.253-.38 6.191-1.586 12.46-3.098 18.351-.906 3.625-1.887 7.25-2.871 10.875-.98 3.7-2.64 7.25-3.547 11.028-.453 1.734-.832 3.093-1.438 4.832-.601 1.738-1.054 3.625.832 4.758 1.965 1.132 5.512.68 6.497-1.586.148-.38.226-.754.3-1.133.68-2.192 2.192-4.153 3.325-6.117 2.039-3.551 4.152-7.098 6.496-10.497 2.414-3.703 4.906-7.253 7.172-11.027 1.058-1.738 2.644-3.25 3.851-4.91l2.871-3.7c-.152.376-1.058 4.532-1.133 4.532.075 0 .075-.078.153-.078-.153.453-.227.984-.305 1.437-.148 0 .078-.453-.074-.453-.98-.152-1.586 6.192-1.586 6.645-.152 1.207-.527 2.418-.754 3.625-.227.98-.078 1.812-.078 2.492-.074-.148-.074.832-.149 1.059-.078.832-.304 1.132-.53 1.886-.602 1.739-.755 3.778-.829 5.516-.078 3.32-.453 6.945 0 10.195.3 2.567 2.793 4.758 5.438 4.531 1.433-.152 1.734-.757 2.039-1.964.226-1.059.754-2.114 1.28-3.246 1.891-4.004 3.778-8.082 5.891-11.934 1.36-2.492 2.118-4.984 3.477-7.328 1.813-3.172 3.547-6.344 5.512-9.363.906-1.434 1.586-2.872 2.191-4.305.832-1.813 2.418-3.399 3.55-5.059 1.282-1.812 2.415-3.625 3.853-5.437 1.28-1.586 2.867-3.172 3.925-4.91.453-.754.153-.754.832-1.434.453-.453 1.133-.984 1.735-1.437 1.21-.981 3.625-1.961 3.023-3.926Zm-33.535 29.226c-.074.227.152-.3.379-.832 0-.074.074-.148.074-.226-.226 1.058-.453 1.89-.601 2.797 0-.532-.079-.985.148-1.739Zm2.719-10.195c-.074 0-.227.379-.375 1.133.148-.68.375-1.133.375-1.133Zm0 0" fill="#222"/></svg>