<svg xmlns="http://www.w3.org/2000/svg" width="500" viewBox="0 0 375 375" height="500" version="1.0"><defs><clipPath id="a"><path d="M0 26.484h375v321.75H0Zm0 0"/></clipPath></defs><g clip-path="url(#a)"><path fill="#333" d="m375 148.773-66.625-45.492v-62.43c0-.937-.09-1.863-.273-2.78a14.282 14.282 0 0 0-3.903-7.301 14.265 14.265 0 0 0-2.164-1.77c-.777-.52-1.601-.96-2.465-1.32a14.567 14.567 0 0 0-2.675-.809 14.204 14.204 0 0 0-2.786-.273H80.891c-.938 0-1.864.09-2.786.273-.918.184-1.808.453-2.675.809-.864.36-1.688.8-2.465 1.32-.781.52-1.5 1.11-2.164 1.77a14.23 14.23 0 0 0-3.09 4.625 14.282 14.282 0 0 0-1.086 5.457v62.43L0 148.772v185.094a14.032 14.032 0 0 0 1.73 6.824l-.261.204 5.195 6.293.899-.754a13.842 13.842 0 0 0 6.703 1.687h346.468a13.822 13.822 0 0 0 6.684-1.687l.898.753 5.196-6.292-.266-.204a14.032 14.032 0 0 0 1.754-6.824Zm-66.625-35.636 54.172 36.98-54.172 23.824ZM74.777 40.852c0-.403.04-.801.118-1.192a5.9 5.9 0 0 1 .347-1.148c.153-.371.34-.723.563-1.055.222-.336.476-.645.761-.926.286-.285.594-.539.926-.761a6.233 6.233 0 0 1 2.203-.91 6.139 6.139 0 0 1 1.196-.118h213.218a6.139 6.139 0 0 1 3.399 1.028 6.153 6.153 0 0 1 2.25 2.742 5.9 5.9 0 0 1 .347 1.148c.079.39.118.79.118 1.192v136.691L187.5 227.129 74.777 177.543Zm-8.152 72.285v60.804l-54.191-23.824ZM8.316 335.234a6.12 6.12 0 0 1-.164-1.406V157.121L149.47 219.31Zm7.133 4.704 142.375-116.965 28.024 12.34 1.652.714 29.652-13.054 142.38 116.964Zm351.399-6.11c-.008.477-.07.942-.184 1.406L225.508 219.31l141.34-62.188Zm0 0"/></g><path fill="#f9d438" d="M359.531 339.938H15.45l142.375-116.965 28.024 12.34 1.652.714 29.652-13.054ZM149.469 219.309 8.316 335.234a6.12 6.12 0 0 1-.164-1.406V157.121Zm0 0"/><path fill="#d4e1f4" d="M66.625 113.137v60.804l-54.191-23.824ZM362.547 150.117l-54.172 23.824v-60.804Zm0 0"/><path fill="#f4f8fc" d="M300.223 40.852v136.691L187.5 227.129 74.777 177.543V40.852c0-.403.04-.801.118-1.192a5.9 5.9 0 0 1 .347-1.148c.153-.371.34-.723.563-1.055.222-.336.476-.645.761-.926.286-.285.594-.539.926-.761a6.233 6.233 0 0 1 2.203-.91 6.139 6.139 0 0 1 1.196-.118h213.218a6.139 6.139 0 0 1 3.399 1.028 6.153 6.153 0 0 1 2.25 2.742 5.9 5.9 0 0 1 .347 1.148c.079.39.118.79.118 1.192Zm0 0"/><path fill="#f9d438" d="M366.848 157.121v176.707c-.008.477-.07.942-.184 1.406L225.508 219.31Zm0 0"/></svg>