<svg xmlns="http://www.w3.org/2000/svg" width="500" viewBox="0 0 375 375" height="500" version="1.0"><defs><clipPath id="a"><path d="M17 30.703h358v313.5H17Zm0 0"/></clipPath></defs><g clip-path="url(#a)"><path fill="#c7ede6" d="M358.3 216.668c4.942-9.383 7.774-20.05 7.774-31.39 0-28.833-18.113-53.372-43.558-63.04 0-.031.004-.062.004-.097 0-50.5-40.95-91.438-91.465-91.438-42.614 0-78.317 29.176-88.473 68.61-6.43-2.114-13.281-3.297-20.414-3.297-33.504 0-61.078 25.222-64.852 57.703-22.668 4.793-39.68 24.89-39.68 48.972 0 27.657 22.427 50.075 50.087 50.075.773 0 1.535-.051 2.293-.098-.016.766-.114 1.508-.114 2.273 0 49.301 39.973 89.262 89.285 89.262 28.04 0 53.032-12.941 69.403-33.152 9.484 9.687 22.676 15.734 37.308 15.734 20.254 0 37.778-11.539 46.457-28.379a47.807 47.807 0 0 0 14.52 2.254c26.46 0 47.91-21.441 47.91-47.894 0-14.418-6.402-27.313-16.484-36.098Zm0 0"/></g><path fill="#fdfcef" d="M311.629 233.172v2.176h13.066v-2.176h23.957c10.825 0 19.598-8.774 19.598-19.594 0-10.16-7.758-18.414-17.66-19.398.098-.79.238-1.559.238-2.371 0-10.82-8.773-19.594-19.598-19.594-6.261 0-11.773 2.984-15.363 7.558-.61-11.48-10.023-20.62-21.66-20.62-12.023 0-21.777 9.745-21.777 21.769 0 1.941.336 3.789.816 5.582-2.797-3.383-6.973-5.582-11.703-5.582-7.758 0-14.086 5.812-15.047 13.3-.789-.093-1.562-.238-2.375-.238-10.824 0-19.601 8.774-19.601 19.594 0 10.82 8.777 19.594 19.601 19.594h41.375Zm0 0"/><path fill="#472b29" d="M294.207 156.973c-13.207 0-23.953 10.742-23.953 23.949v.203a17.153 17.153 0 0 0-8.711-2.379c-7.977 0-14.856 5.488-16.805 13.082-.203-.012-.406-.02-.617-.02-12.008 0-21.777 9.766-21.777 21.77s9.77 21.77 21.777 21.77h67.508c1.203 0 2.18-.973 2.18-2.176a2.177 2.177 0 0 0-2.18-2.176H244.12c-9.61 0-17.422-7.812-17.422-17.418 0-9.605 7.813-17.418 17.422-17.418.508 0 1 .074 1.492.14l.617.083c.09.015.176.02.27.02 1.07 0 2.012-.81 2.156-1.903.832-6.504 6.371-11.402 12.887-11.402 3.855 0 7.504 1.746 10.023 4.789a2.177 2.177 0 0 0 1.68.793 2.176 2.176 0 0 0 2.098-2.738c-.5-1.895-.735-3.489-.735-5.02 0-10.8 8.793-19.594 19.598-19.594 10.371 0 18.934 8.152 19.488 18.563a2.17 2.17 0 0 0 1.52 1.957c.219.07.441.105.664.105.652 0 1.289-.3 1.707-.836 3.355-4.273 8.328-6.726 13.644-6.726 9.61 0 17.422 7.812 17.422 17.418 0 .507-.074 1-.14 1.492l-.082.613c-.07.586.097 1.168.46 1.625.368.457.903.75 1.481.805 8.957.894 15.703 8.304 15.703 17.234 0 9.606-7.812 17.418-17.422 17.418h-23.957a2.176 2.176 0 0 0 0 4.352h23.957c12.008 0 21.778-9.766 21.778-21.77 0-10.437-7.356-19.215-17.434-21.234.008-.18.012-.36.012-.535 0-12.004-9.77-21.774-21.778-21.774-5.12 0-9.988 1.813-13.863 5.07-2.605-10.468-12.031-18.132-23.16-18.132Zm0 0"/><path fill="#472b29" d="M287.676 187.453c-6.11 0-11.363 4.352-12.688 10.192a10.22 10.22 0 0 0-5.277-1.485c-5.238 0-9.574 3.906-10.25 9.004-.883-.2-1.727-.293-2.547-.293-6.66 0-12.246 5.223-12.71 11.895a1.098 1.098 0 0 0 1.01 1.168h.079c.566 0 1.047-.442 1.086-1.012.387-5.535 5.012-9.875 10.535-9.875.996 0 2.047.183 3.215.555.094.027.195.043.289.043a1.134 1.134 0 0 0 1.125-1.14c0-4.505 3.664-8.165 8.168-8.165 1.945 0 3.851.73 5.36 2.058.206.18.46.274.718.274.14 0 .274-.027.406-.082.383-.153.645-.508.676-.922.453-5.633 5.195-10.04 10.805-10.04.906 0 1.851.15 2.969.47.101.027.207.043.304.043.477 0 .903-.32 1.043-.793a1.094 1.094 0 0 0-.75-1.348c-1.316-.371-2.453-.547-3.566-.547Zm60.469 6.531c-5.778 0-10.926 3.907-12.52 9.5-.164.578.172 1.18.75 1.348a1.088 1.088 0 0 0 1.344-.754c1.328-4.66 5.617-7.918 10.426-7.918.507 0 1 .063 1.488.13a1 1 0 0 0 .152.01c.527 0 .996-.402 1.07-.945a1.082 1.082 0 0 0-.93-1.222c-.585-.078-1.175-.149-1.78-.149Zm0 0"/><path fill="#fff" d="M45.945 191.809H2.395a2.18 2.18 0 0 1-2.18-2.18c0-1.2.976-2.176 2.18-2.176h43.55a2.178 2.178 0 1 1 0 4.355Zm13.067 0h-4.356a2.179 2.179 0 0 1 0-4.355h4.356a2.178 2.178 0 1 1 0 4.355Zm21.738 8.707H41.59a2.179 2.179 0 0 1 0-4.356h39.16a2.18 2.18 0 0 1 2.18 2.18 2.18 2.18 0 0 1-2.18 2.176Zm-47.871 0h-4.356a2.179 2.179 0 0 1 0-4.356h4.356a2.177 2.177 0 1 1 0 4.355Zm-13.066 0h-8.708a2.18 2.18 0 0 1-2.18-2.176 2.18 2.18 0 0 1 2.18-2.18h8.707a2.177 2.177 0 1 1 0 4.355Zm26.132 8.707h-8.71a2.176 2.176 0 0 1 0-4.352h8.71c1.203 0 2.18.973 2.18 2.176a2.177 2.177 0 0 1-2.18 2.176Zm13.067-39.188h-4.356a2.179 2.179 0 0 0 0 4.355h4.356a2.18 2.18 0 0 0 2.18-2.175 2.18 2.18 0 0 0-2.18-2.18Zm0 8.711H37.234a2.176 2.176 0 0 0 0 4.352h21.778c1.203 0 2.18-.973 2.18-2.176a2.177 2.177 0 0 0-2.18-2.176Zm21.777 8.707H67.723a2.179 2.179 0 0 0 0 4.356h13.066a2.18 2.18 0 0 0 2.18-2.18 2.18 2.18 0 0 0-2.18-2.176ZM294.207 74.246h-43.555a2.179 2.179 0 0 1 0-4.355h43.555a2.18 2.18 0 0 1 2.18 2.175 2.18 2.18 0 0 1-2.18 2.18Zm17.422 0h-8.711a2.179 2.179 0 0 1 0-4.355h8.71a2.18 2.18 0 0 1 2.18 2.175 2.18 2.18 0 0 1-2.18 2.18Zm21.777 8.707h-43.554a2.179 2.179 0 0 1 0-4.355h43.554a2.177 2.177 0 1 1 0 4.355Zm-52.265 0h-4.356a2.179 2.179 0 0 1 0-4.355h4.356a2.18 2.18 0 0 1 2.18 2.18 2.18 2.18 0 0 1-2.18 2.175Zm-13.196 0h-8.582a2.179 2.179 0 0 1 0-4.355h8.582a2.18 2.18 0 0 1 2.18 2.18 2.18 2.18 0 0 1-2.18 2.175Zm39.328-17.418h-21.777a2.176 2.176 0 0 1 0-4.351h21.777a2.175 2.175 0 1 1 0 4.352ZM294.207 91.66h-8.71a2.176 2.176 0 0 1 0-4.351h8.71c1.203 0 2.18.972 2.18 2.175a2.177 2.177 0 0 1-2.18 2.176Zm0 0"/><path fill="#f69272" d="M204.922 86.219a100.425 100.425 0 0 0-9.926.488 99.997 99.997 0 0 0-14.68 2.547 100.935 100.935 0 0 0-14.148 4.672 102.214 102.214 0 0 0-4.543 2.011c-1.496.711-2.977 1.454-4.438 2.235a97.693 97.693 0 0 0-4.324 2.45 97.51 97.51 0 0 0-4.199 2.66 97.523 97.523 0 0 0-4.066 2.859 102.297 102.297 0 0 0-3.918 3.058 99.107 99.107 0 0 0-3.762 3.246 96.152 96.152 0 0 0-3.602 3.426 102.658 102.658 0 0 0-3.425 3.598 99.107 99.107 0 0 0-3.246 3.761 102.297 102.297 0 0 0-5.922 7.98 101.474 101.474 0 0 0-7.344 12.958 104.26 104.26 0 0 0-2.012 4.543 99.535 99.535 0 0 0-1.789 4.637 99.485 99.485 0 0 0-1.558 4.718 96.522 96.522 0 0 0-1.329 4.79 102.233 102.233 0 0 0-1.09 4.847c-.32 1.625-.605 3.258-.847 4.895-.242 1.64-.445 3.285-.61 4.933a100.177 100.177 0 0 0-.488 9.922 100.177 100.177 0 0 0 .488 9.922c.165 1.648.368 3.293.61 4.934.242 1.636.527 3.27.848 4.894.324 1.625.687 3.242 1.09 4.848a97.717 97.717 0 0 0 1.328 4.789 100.979 100.979 0 0 0 3.347 9.355 104.26 104.26 0 0 0 2.012 4.543 99.84 99.84 0 0 0 4.684 8.758 101.314 101.314 0 0 0 15.254 19.54 96.152 96.152 0 0 0 3.601 3.425 99.107 99.107 0 0 0 3.762 3.246c1.28 1.05 2.586 2.07 3.918 3.059a97.523 97.523 0 0 0 4.066 2.859 97.51 97.51 0 0 0 4.2 2.66 97.693 97.693 0 0 0 4.323 2.45c1.461.78 2.942 1.523 4.438 2.234a102.214 102.214 0 0 0 9.184 3.8 100.935 100.935 0 0 0 14.36 3.973 99.32 99.32 0 0 0 4.894.848c1.64.246 3.285.45 4.933.61a99.982 99.982 0 0 0 9.926.488 100.425 100.425 0 0 0 9.926-.489 95.524 95.524 0 0 0 4.933-.61 99.32 99.32 0 0 0 4.895-.847 102.39 102.39 0 0 0 9.64-2.414c1.586-.48 3.16-1 4.72-1.558a102.214 102.214 0 0 0 9.184-3.8c1.495-.712 2.975-1.454 4.436-2.236a97.693 97.693 0 0 0 4.324-2.449 97.51 97.51 0 0 0 4.2-2.66 97.523 97.523 0 0 0 4.066-2.86 102.297 102.297 0 0 0 3.918-3.058 99.107 99.107 0 0 0 3.762-3.246 96.152 96.152 0 0 0 3.601-3.426 102.658 102.658 0 0 0 3.426-3.598 99.107 99.107 0 0 0 3.246-3.761 102.297 102.297 0 0 0 5.922-7.98 104.155 104.155 0 0 0 2.66-4.2 99.84 99.84 0 0 0 4.684-8.758 104.26 104.26 0 0 0 2.012-4.543 100.979 100.979 0 0 0 3.348-9.355 97.717 97.717 0 0 0 1.327-4.79c.403-1.605.766-3.222 1.09-4.847.32-1.625.606-3.258.848-4.894.242-1.641.445-3.286.61-4.934.16-1.648.284-3.3.366-4.953.079-1.656.122-3.313.122-4.969 0-1.656-.043-3.312-.122-4.969a105.165 105.165 0 0 0-.367-4.953 104.958 104.958 0 0 0-.61-4.933c-.241-1.637-.526-3.27-.847-4.895a102.233 102.233 0 0 0-1.09-4.848 97.717 97.717 0 0 0-1.328-4.789 100.979 100.979 0 0 0-3.347-9.355 104.26 104.26 0 0 0-2.012-4.543 99.84 99.84 0 0 0-4.684-8.758 101.474 101.474 0 0 0-8.582-12.18 99.107 99.107 0 0 0-3.246-3.761 102.658 102.658 0 0 0-3.426-3.598 96.152 96.152 0 0 0-3.601-3.426 99.107 99.107 0 0 0-3.762-3.246 102.297 102.297 0 0 0-3.918-3.058 97.523 97.523 0 0 0-4.066-2.86 97.51 97.51 0 0 0-4.2-2.66 97.693 97.693 0 0 0-4.324-2.45 104.681 104.681 0 0 0-4.437-2.234 102.214 102.214 0 0 0-9.184-3.8 99.484 99.484 0 0 0-4.719-1.559 102.24 102.24 0 0 0-9.64-2.414 99.32 99.32 0 0 0-4.895-.848 95.524 95.524 0 0 0-4.933-.609 99.982 99.982 0 0 0-9.926-.488Zm0 0"/><path fill="#472b29" d="M204.922 291.734c-57.52 0-104.313-46.78-104.313-104.28S147.402 83.171 204.922 83.171s104.312 46.781 104.312 104.281c0 57.5-46.793 104.281-104.312 104.281Zm0-202.468c-54.16 0-98.215 44.046-98.215 98.187 0 54.14 44.055 98.188 98.215 98.188 54.16 0 98.215-44.047 98.215-98.188 0-54.14-44.055-98.187-98.215-98.187Zm0 0"/><path fill="#472b29" d="M286.035 165.625a2.176 2.176 0 0 1-2.082-1.535 79.13 79.13 0 0 0-1.187-3.559 81.368 81.368 0 0 0-6.125-13.215 2.168 2.168 0 0 1 .796-2.972c1.02-.606 2.364-.25 2.973.793a85.377 85.377 0 0 1 6.461 13.922 91.63 91.63 0 0 1 1.246 3.75 2.18 2.18 0 0 1-1.441 2.722c-.215.063-.43.094-.64.094Zm0 0"/><path fill="#472b29" d="M204.922 274.688c-48.121 0-87.262-39.012-87.262-86.973s39.14-86.977 87.262-86.977c24.969 0 48.793 10.7 65.363 29.348a85.398 85.398 0 0 1 3.613 4.355c.743.95.567 2.317-.382 3.055a2.186 2.186 0 0 1-3.059-.383 82.432 82.432 0 0 0-3.43-4.129c-15.742-17.722-38.375-27.886-62.105-27.886-45.715 0-82.906 37.062-82.906 82.62 0 45.555 37.191 82.622 82.906 82.622s82.906-37.063 82.906-82.621a83.27 83.27 0 0 0-.926-12.395 2.174 2.174 0 0 1 1.828-2.48c1.18-.14 2.293.636 2.473 1.828a87.93 87.93 0 0 1 .98 13.047c0 47.953-39.14 86.969-87.261 86.969Zm0 0"/><path fill="#fdfcef" d="M137.41 289.777h15.246c8.418 0 15.242-6.824 15.242-15.242 0-7.754-5.812-14.082-13.304-15.043.12-.777.238-1.558.238-2.37 0-8.419-6.824-15.243-15.242-15.243-4.496 0-8.492 1.984-11.281 5.074-1.672-7.871-8.653-13.781-17.032-13.781-9.62 0-17.422 7.797-17.422 17.418 0 .832.133 1.629.247 2.43-1.864-1.5-4.2-2.43-6.778-2.43-5.347 0-9.777 3.86-10.691 8.945-.781-.12-1.559-.238-2.375-.238-8.418 0-15.246 6.824-15.246 15.238 0 8.418 6.828 15.242 15.246 15.242h32.664v2.176h30.488Zm0 0"/><path fill="#472b29" d="M145.035 270.184a1.09 1.09 0 0 1-1.09-1.09c0-5.324 4.332-9.656 9.66-9.656.149.039 3.211-.004 5.418.59.579.156.926.753.766 1.331-.156.586-.754.93-1.332.77-1.934-.524-4.789-.524-4.848-.516-4.129 0-7.488 3.356-7.488 7.48 0 .602-.484 1.09-1.086 1.09Zm-29.402 17.414c-.285 0-.567.054-.832.168-.266.109-.5.265-.707.472-.203.203-.36.438-.473.703a2.198 2.198 0 0 0 0 1.668c.113.266.27.5.473.707.207.204.441.36.707.473.265.11.547.164.832.164.289 0 .57-.055.836-.164.265-.113.5-.27.707-.473a2.164 2.164 0 0 0 .637-1.54c0-.288-.055-.565-.165-.835a2.207 2.207 0 0 0-1.18-1.175 2.117 2.117 0 0 0-.835-.168Zm0 0"/><path fill="#472b29" d="M152.656 291.953H137.41a2.179 2.179 0 0 1 0-4.355h15.246c7.203 0 13.067-5.86 13.067-13.063 0-6.512-4.899-12.05-11.403-12.883a2.204 2.204 0 0 1-1.465-.851 2.191 2.191 0 0 1-.41-1.645c.102-.668.211-1.34.211-2.035 0-7.203-5.863-13.062-13.066-13.062-3.703 0-7.133 1.543-9.664 4.351a2.17 2.17 0 0 1-2.18.645 2.167 2.167 0 0 1-1.566-1.649c-1.485-6.984-7.754-12.058-14.903-12.058-8.402 0-15.242 6.836-15.242 15.242 0 .62.09 1.219.18 1.82.125.883-.278 1.906-1.055 2.352-.781.441-1.726.511-2.422-.047-1.59-1.274-3.457-1.95-5.414-1.95a8.684 8.684 0 0 0-8.55 7.16 2.166 2.166 0 0 1-2.477 1.762c-.672-.105-1.344-.214-2.04-.214-7.202 0-13.066 5.863-13.066 13.062 0 7.203 5.864 13.063 13.067 13.063h32.664a2.18 2.18 0 0 1 2.18 2.18 2.18 2.18 0 0 1-2.18 2.175H74.258c-9.61 0-17.422-7.812-17.422-17.418 0-9.605 7.812-17.414 17.422-17.414.258 0 .504.008.758.024a13.038 13.038 0 0 1 12.308-8.735c1.52 0 3 .266 4.403.785.718-10.16 9.21-18.199 19.55-18.199 7.977 0 15.098 4.906 18.09 12.078 2.961-2.168 6.543-3.37 10.223-3.37 9.61 0 17.422 7.812 17.422 17.417 0 .207-.004.414-.016.617 7.59 1.95 13.082 8.825 13.082 16.797 0 9.606-7.812 17.418-17.422 17.418Zm0 0"/><path fill="#472b29" d="M128.7 287.598h-4.356a2.179 2.179 0 0 0 0 4.355h4.355a2.18 2.18 0 0 0 2.18-2.176 2.18 2.18 0 0 0-2.18-2.18Zm0 0"/><path fill="#fdfcee" d="M243.406 181.059h-31.824v-34.586a6.917 6.917 0 0 0-6.922-6.918 6.917 6.917 0 0 0-6.922 6.918v34.586h-31.824a6.917 6.917 0 0 0-6.922 6.918 6.92 6.92 0 0 0 6.922 6.918h31.824v34.585a6.92 6.92 0 0 0 6.922 6.918 6.92 6.92 0 0 0 6.922-6.918v-34.585h31.824a6.92 6.92 0 0 0 6.922-6.918 6.92 6.92 0 0 0-6.922-6.918Zm0 0"/><path fill="#472b29" d="M204.66 238.57c-5.012 0-9.097-4.078-9.097-9.09v-32.41H165.91c-5.012 0-9.094-4.078-9.094-9.093 0-5.012 4.082-9.094 9.094-9.094h29.653v-32.406c0-5.012 4.085-9.094 9.097-9.094s9.094 4.082 9.094 9.094v32.406h29.652c5.012 0 9.098 4.082 9.098 9.094 0 5.015-4.086 9.093-9.098 9.093h-29.652v32.41c0 5.012-4.074 9.09-9.094 9.09Zm-38.746-55.336a4.743 4.743 0 0 0-4.738 4.739 4.744 4.744 0 0 0 4.738 4.742h34.008v36.762a4.743 4.743 0 0 0 4.742 4.734 4.742 4.742 0 0 0 4.738-4.734v-36.762h34.008a4.745 4.745 0 0 0 4.742-4.742 4.744 4.744 0 0 0-4.742-4.739h-34.008v-36.761a4.743 4.743 0 0 0-4.738-4.739 4.744 4.744 0 0 0-4.742 4.739v36.761Zm0 0"/></svg>