<svg xmlns="http://www.w3.org/2000/svg" width="500" viewBox="0 0 375 375" height="500" version="1.0"><defs><clipPath id="a"><path d="M2 32.813h297V317H2Zm0 0"/></clipPath></defs><g clip-path="url(#a)"><path fill="#f3c610" d="M298.578 56.703h-12.34v-6.05c0-3.477-2.828-6.305-6.3-6.305H21.012a6.271 6.271 0 0 0-6.301 6.304V211.04c0 3.473 2.828 6.305 6.3 6.305h141.805v49.43H135.56l-9.254 37.07h36.511v12.355H94.934c-3.47 0-6.172-2.765-6.172-6.176 0-3.285 2.765-6.18 6.238-6.18h16.004c1.414 0 2.7-1.093 3.023-2.382l8.676-34.688H21.012c-10.285 0-18.645-8.367-18.645-18.472V50.46c0-10.234 8.23-18.473 18.645-18.473h258.926c10.285 0 18.64 8.367 18.64 18.473ZM150.473 254.414c6.816 0 12.343-5.535 12.343-12.355s-5.527-12.356-12.343-12.356c-6.813 0-12.34 5.535-12.34 12.356 0 6.82 5.527 12.355 12.34 12.355Zm0 0" fill-rule="evenodd"/></g><path fill="#f3c610" d="M347.945 118.488h-12.34V93.773H187.5v197.715h49.367v37.07h-43.133a18.517 18.517 0 0 1-18.578-18.601V87.66c0-10.297 8.23-18.601 18.578-18.601h135.637a18.514 18.514 0 0 1 18.574 18.601Zm0 0" fill-rule="evenodd"/><path fill="#f3c610" d="M267.79 130.844h86.265a18.517 18.517 0 0 1 18.578 18.601v172.871c0 10.297-8.23 18.598-18.578 18.598h-86.266a18.516 18.516 0 0 1-18.578-18.598v-172.87c0-10.298 8.226-18.602 18.578-18.602Zm-6.24 160.644h98.74v-135.93h-98.74Zm49.372 37.07c6.812 0 12.34-5.535 12.34-12.359 0-6.82-5.528-12.355-12.34-12.355-6.817 0-12.344 5.535-12.344 12.355 0 6.824 5.527 12.36 12.344 12.36Zm0 0" fill-rule="evenodd"/></svg>