<svg xmlns="http://www.w3.org/2000/svg" width="500" viewBox="0 0 375 375" height="500" version="1.0"><defs><clipPath id="a"><path d="M0 3.281h375v368.25H0Zm0 0"/></clipPath></defs><path fill="#3d52aa" d="M262.379 203.082c7.488 1.063 15.355-1.91 21.113-7.664l33.137-35.953a22.537 22.537 0 0 0 5.45-23.067c-2.704-8.097 9.316-24.101 15.358-30.136L275.54 41.914l-15.18 15.172-17.949-4.488a31.535 31.535 0 0 0-29.937 8.289L181.34 97.152"/><path fill="#344496" d="m293.793 10.137 74.809 74.77-25.223 24.925-72.746-74.773Zm0 0"/><path fill="#b6dedc" d="m187.219 103.082-41.563-41.543a26.625 26.625 0 0 0-27.23-6.422l-6.055 4.867L99.902 47.52l-61.71 60.96 22.046 22.032-4.492 17.937a31.506 31.506 0 0 0 8.293 29.922l54.535 56.078"/><path fill="#db0909" d="M131.703 334.145h118.45V365.3h-118.45Zm0 0"/><path fill="#ec322c" d="M237.684 334.145v-15.227l12.37-11.356a31.508 31.508 0 0 0 12.567-25.175v-94.32c0-13.766-11.164-24.922-24.937-24.922v-26.938c0-8.273-5.942-15.91-14.188-16.625-9.238-.797-16.98 6.461-16.98 15.523v-17.593c0-8.274-5.942-15.907-14.192-16.621-9.238-.801-16.98 6.46-16.98 15.52v12.46c0-9.133-7.864-16.43-17.196-15.496-8.109.816-13.976 8.238-13.976 16.387v70.765c-13.77 0-24.938 11.16-24.938 24.926v60.274c0 8.894 5.145 16.808 13 21.003a22.545 22.545 0 0 1 11.938 19.887v7.528"/><path fill="#7accc6" d="M7.027 91.14 88.07 10.134l24.938 24.926-81.043 81.004Zm0 0"/><g clip-path="url(#a)"><path d="M373.008 80.5 298.199 5.73c-1.195-1.195-2.887-1.906-4.527-1.824a6.224 6.224 0 0 0-4.45 1.985l-23.16 24.925a6.23 6.23 0 0 0 .102 8.586l1.758 1.809-9.195 9.187-14.528-3.625c-12.781-3.214-26.531.606-36.183 10.27L181.52 87.91l-30.79-30.773c-8.843-8.844-21.726-11.88-33.609-7.934a6.431 6.431 0 0 0-1.941 1.059l-1.692 1.367-4.101-4.11 8.058-8.054a6.224 6.224 0 0 0 0-8.813L92.512 5.73a6.229 6.229 0 0 0-8.817 0L2.652 86.734a6.22 6.22 0 0 0 0 8.809l24.938 24.926a6.21 6.21 0 0 0 4.406 1.824c1.594 0 3.192-.61 4.406-1.824l2.82-2.817 14.774 14.766-3.629 14.52c-3.203 12.789.606 26.523 9.871 35.777l52.809 54.3v48.715c0 10.985 6.246 21.137 16.3 26.508a16.267 16.267 0 0 1 8.633 14.387v1.29h-6.23a6.226 6.226 0 0 0-6.234 6.23V365.3a6.226 6.226 0 0 0 6.234 6.23h118.445a6.226 6.226 0 0 0 6.235-6.23v-31.156a6.226 6.226 0 0 0-6.235-6.23h-6.234v-6.263l9.883-9.109c9.426-7.09 15.054-18.363 15.054-30.156v-72.992c7.02-.797 13.934-4.004 19.465-9.547l32.953-35.766c7.762-7.754 10.43-19.039 6.95-29.445-.996-3.004 4.37-12.844 10.765-20.383a6.224 6.224 0 0 0 4.293 1.8h.059c1.64 0 3.219-.648 4.383-1.8l25.226-24.922a6.257 6.257 0 0 0 1.852-4.414 6.192 6.192 0 0 0-1.836-4.418ZM15.875 91.137l72.227-72.192 16.12 16.114-72.226 72.191Zm97.719 128.57-44.485-45.742c-6.25-6.242-8.793-15.445-6.652-24.012l4.488-17.941a6.206 6.206 0 0 0-1.64-5.91l-17.27-17.262 52.535-52.508 8.063 8.055c2.25 2.258 5.847 2.437 8.316.449l5.117-4.117c7.09-1.957 14.614-.008 19.848 5.226l34.363 34.348c-.015.016-.043.023-.062.043a21.962 21.962 0 0 0-6.016 9.375 21.888 21.888 0 0 0-12.637-2.535c-10.984 1.097-19.593 11.023-19.593 22.586v65.164c-12.348 2.52-22.051 12.37-24.375 24.781ZM243.957 359.07h-105.98v-18.695h105.98Zm12.469-76.683c0 7.898-3.766 15.445-10.555 20.59l-12.363 11.355a6.209 6.209 0 0 0-2.012 4.586v8.996H150.45v-1.297a28.699 28.699 0 0 0-15.234-25.379c-5.98-3.195-9.7-9.14-9.7-15.508v-60.273c0-8.11 5.231-14.965 12.465-17.543v38.996h12.47V129.762c0-5.246 3.671-9.719 8.366-10.188 2.7-.242 5.274.574 7.258 2.371a9.255 9.255 0 0 1 3.078 6.926v93.117h12.47v-105.57a9.246 9.246 0 0 1 3.03-6.89c1.95-1.786 4.47-2.657 7.168-2.419 4.688.403 8.496 5.079 8.496 10.41v104.47h12.47v-86.88a9.253 9.253 0 0 1 3.03-6.89c1.95-1.781 4.477-2.64 7.168-2.418 4.688.406 8.496 5.078 8.496 10.41v85.777h12.47v-51.46c7.238 2.577 12.468 9.433 12.468 17.546v94.313Zm60.015-143.805c1.965 5.895.454 12.293-4.12 16.871l-32.954 35.766c-3.031 3.027-6.722 4.91-10.472 5.64v-8.793c0-15.046-10.73-27.632-24.938-30.523v-21.336c0-11.828-8.734-21.86-19.883-22.824a22.108 22.108 0 0 0-11.375 2.066c-.941-10.91-9.297-19.851-19.793-20.758-.27-.027-.523.024-.793.012l25.047-29.2c6.25-6.241 15.45-8.78 24.028-6.648l17.949 4.485a6.205 6.205 0 0 0 5.914-1.637l11.574-11.566 53.71 55.215c-5.765 6.671-17.585 22.18-13.894 33.23Zm27.024-37.598-64.23-66.023 14.718-15.852 65.809 65.774Zm0 0"/></g></svg>