<svg xmlns="http://www.w3.org/2000/svg" width="500" viewBox="0 0 375 375" height="500" version="1.0"><defs><clipPath id="a"><path d="M37.5 0H266v151H37.5Zm0 0"/></clipPath></defs><path fill="#f3c610" d="M238.05 317.695c-18.523 0-33.538-15.02-33.538-33.55 0-18.528 15.015-33.547 33.539-33.547 18.52 0 33.539 15.02 33.539 33.547 0 18.53-15.02 33.55-33.54 33.55Zm86.41-21.656-14.12-4.586c.238-2.406.363-4.84.363-7.308 0-2.465-.125-4.899-.363-7.305l14.12-4.59c2.587-.84 4.013-3.64 3.173-6.223l-6.461-19.894c-.84-2.582-3.64-4.012-6.223-3.172l-14.12 4.59a72.814 72.814 0 0 0-8.595-11.813l8.735-12.023a4.956 4.956 0 0 0-1.094-6.903l-16.914-12.292a4.95 4.95 0 0 0-6.899 1.093l-8.722 12.008a72.316 72.316 0 0 0-13.895-4.512v-14.847c0-2.719-2.226-4.942-4.941-4.942h-20.906a4.955 4.955 0 0 0-4.942 4.942v14.847a72.14 72.14 0 0 0-13.894 4.512l-8.723-12.008a4.956 4.956 0 0 0-6.902-1.093l-16.914 12.292a4.956 4.956 0 0 0-1.094 6.903l8.73 12.023a72.791 72.791 0 0 0-8.59 11.813l-14.12-4.59c-2.583-.84-5.383.59-6.223 3.172l-6.461 19.894c-.84 2.582.59 5.383 3.172 6.223l14.12 4.59a74.059 74.059 0 0 0-.362 7.305c0 2.468.125 4.902.363 7.308l-14.121 4.586c-2.582.844-4.012 3.645-3.172 6.227l6.46 19.894c.84 2.582 3.641 4.012 6.223 3.172l14.122-4.59a72.962 72.962 0 0 0 8.59 11.813l-8.731 12.023a4.95 4.95 0 0 0 1.094 6.899l16.914 12.296c2.199 1.598 5.304 1.11 6.902-1.09l8.723-12.011a72.693 72.693 0 0 0 13.894 4.515v14.844a4.955 4.955 0 0 0 4.942 4.942h20.906c2.715 0 4.941-2.223 4.941-4.942v-14.844a72.872 72.872 0 0 0 13.895-4.515l8.723 12.012c1.597 2.199 4.699 2.687 6.898 1.09l16.914-12.297a4.95 4.95 0 0 0 1.094-6.899l-8.735-12.023a72.984 72.984 0 0 0 8.594-11.813l14.121 4.59c2.582.84 5.383-.59 6.223-3.172l6.46-19.894c.84-2.582-.585-5.383-3.171-6.227"/><path fill="#f3c610" d="M193.328 196.074a12.672 12.672 0 0 1 2.7-.297c4.074 0 7.929 1.965 10.32 5.246l5.175 7.13a82.809 82.809 0 0 1 3.332-1.083v-8.808c0-7.028 5.715-12.742 12.739-12.742h20.91c3.84 0 7.281 1.714 9.621 4.414V94.188h-64.797v101.886M157.613 285.895a87.122 87.122 0 0 1-.015-1.75c0-.582.004-1.165.015-1.747l-8.386-2.726c-6.68-2.172-10.348-9.379-8.18-16.055l6.46-19.894a12.714 12.714 0 0 1 12.126-8.805c1.336 0 2.656.21 3.93.625l8.382 2.723a86.972 86.972 0 0 1 2.059-2.825l-5.184-7.14c-4.129-5.688-2.867-13.668 2.817-17.797l8.984-6.531v-76.739h-64.797v165.22h27.688a12.608 12.608 0 0 1 5.715-3.833l8.386-2.726M38.328 292.453h64.793V162.816H38.328v129.637"/><g clip-path="url(#a)"><path fill="#f3c610" d="M222.293 46.059a7.58 7.58 0 0 0 1.879 10.55 7.56 7.56 0 0 0 4.328 1.36c2.39 0 4.75-1.13 6.219-3.242l29.617-42.504a7.581 7.581 0 0 0 .262-8.27 7.573 7.573 0 0 0-7.45-3.582l-51.996 6.742a7.579 7.579 0 0 0-6.539 8.489 7.566 7.566 0 0 0 8.489 6.535l15.632-2.024-185.23 111.903v18.3l193.66-116.992-8.871 12.735"/></g></svg>