<svg xmlns="http://www.w3.org/2000/svg" width="500" viewBox="0 0 375 375" height="500" version="1.0"><path fill="#c3cded" d="M7.086 304.125H148.84v45.102H77.965V375h219.07v-25.773H226.16v-45.102h141.754a6.439 6.439 0 0 0 2.465-.492c.39-.16.762-.36 1.113-.594a6.379 6.379 0 0 0 2.371-2.895 6.479 6.479 0 0 0 .492-2.465V52.837a6.448 6.448 0 0 0-.492-2.465 6.379 6.379 0 0 0-2.371-2.895 6.343 6.343 0 0 0-1.113-.593 6.439 6.439 0 0 0-2.465-.492H226.16V27.063h59.149a19.314 19.314 0 0 0 6.57 8.977 19.013 19.013 0 0 0 3.883 2.277 19.47 19.47 0 0 0 4.305 1.32c.742.133 1.488.226 2.238.273.754.047 1.504.05 2.257.012.75-.04 1.497-.125 2.239-.25A20.17 20.17 0 0 0 309 39.16a20.15 20.15 0 0 0 2.121-.762 19.457 19.457 0 0 0 7.192-5.32 19.047 19.047 0 0 0 2.48-3.758 19.04 19.04 0 0 0 1.547-4.23 19.386 19.386 0 0 0 .523-4.473 19.604 19.604 0 0 0-.523-4.473c-.176-.73-.39-1.449-.649-2.156a18.715 18.715 0 0 0-.898-2.07 19.047 19.047 0 0 0-2.48-3.758 19.195 19.195 0 0 0-3.286-3.082c-.605-.45-1.234-.86-1.886-1.234a20.236 20.236 0 0 0-2.02-1.004 19.3 19.3 0 0 0-15.36.082 19.013 19.013 0 0 0-3.882 2.277 19.172 19.172 0 0 0-4.586 4.934c-.406.633-.777 1.289-1.11 1.965a19.006 19.006 0 0 0-.874 2.078h-65.594c-.422 0-.84.039-1.254.125-.418.082-.82.203-1.211.363-.39.164-.762.363-1.113.598a6.379 6.379 0 0 0-1.778 1.777 6.343 6.343 0 0 0-.593 1.113 6.439 6.439 0 0 0-.492 2.465v25.774h-51.547V20.617a6.439 6.439 0 0 0-.493-2.465 6.379 6.379 0 0 0-2.371-2.89 6.632 6.632 0 0 0-1.113-.598 6.459 6.459 0 0 0-1.21-.363 6.15 6.15 0 0 0-1.255-.125H89.691c-.25-.711-.543-1.403-.875-2.078a19.806 19.806 0 0 0-1.109-1.965 20.307 20.307 0 0 0-1.332-1.82A19.172 19.172 0 0 0 83.121 5.2a19.013 19.013 0 0 0-3.883-2.277 19.47 19.47 0 0 0-4.305-1.32 19.667 19.667 0 0 0-2.238-.275 19.79 19.79 0 0 0-2.257-.012 19.3 19.3 0 0 0-6.559 1.523c-.691.298-1.367.634-2.02 1.005-.652.375-1.28.785-1.886 1.234a19.195 19.195 0 0 0-3.285 3.082 19.043 19.043 0 0 0-2.481 3.758c-.34.672-.64 1.36-.898 2.07a19.827 19.827 0 0 0-.649 2.157 19.604 19.604 0 0 0-.523 4.472 19.386 19.386 0 0 0 1.172 6.633c.257.707.558 1.398.898 2.07a19.047 19.047 0 0 0 2.48 3.758 19.797 19.797 0 0 0 1.551 1.637 19.285 19.285 0 0 0 3.621 2.676c.653.375 1.328.71 2.02 1.007A20.15 20.15 0 0 0 66 39.16c.723.211 1.457.383 2.2.512.741.125 1.487.21 2.237.25.754.039 1.504.035 2.258-.012.75-.047 1.496-.14 2.239-.273a19.47 19.47 0 0 0 6.312-2.344 19.583 19.583 0 0 0 3.594-2.715 19.86 19.86 0 0 0 1.535-1.656 19.314 19.314 0 0 0 3.316-5.86h59.149v19.329H7.086a6.439 6.439 0 0 0-2.465.492c-.39.16-.762.36-1.113.594a6.379 6.379 0 0 0-2.371 2.895 6.448 6.448 0 0 0-.492 2.465v244.843a6.479 6.479 0 0 0 1.886 4.558c.301.297.625.563.977.801.351.234.722.434 1.113.594.39.164.793.285 1.211.367.414.082.832.125 1.254.125Zm154.64-244.848h51.547v71.973l-4.316 4.316a43.55 43.55 0 0 0-8.57-3.543V117.27h-25.774v14.753a43.55 43.55 0 0 0-8.57 3.543l-4.316-4.316Zm25.774 90.207a26.005 26.005 0 0 1 5.027.496c.828.165 1.645.368 2.453.614a25.445 25.445 0 0 1 4.668 1.934c.747.398 1.47.831 2.172 1.3.7.469 1.38.973 2.032 1.508a24.875 24.875 0 0 1 1.87 1.7 24.875 24.875 0 0 1 1.7 1.87c.535.653 1.039 1.332 1.508 2.031a25.942 25.942 0 0 1 2.382 4.458 27 27 0 0 1 .852 2.382c.246.805.45 1.625.613 2.453a25.712 25.712 0 0 1 .371 7.555 25.712 25.712 0 0 1-.984 4.953 25.446 25.446 0 0 1-1.934 4.668 25.942 25.942 0 0 1-1.3 2.172c-.47.7-.973 1.379-1.508 2.031a24.875 24.875 0 0 1-1.7 1.871 24.876 24.876 0 0 1-1.87 1.7 26.266 26.266 0 0 1-2.032 1.507 25.942 25.942 0 0 1-4.457 2.383 27 27 0 0 1-2.383.852 25.711 25.711 0 0 1-10.008.984 25.711 25.711 0 0 1-4.952-.984 25.445 25.445 0 0 1-4.668-1.934 25.942 25.942 0 0 1-2.172-1.3c-.7-.47-1.38-.973-2.032-1.508a24.876 24.876 0 0 1-1.87-1.7 24.875 24.875 0 0 1-1.7-1.87 26.266 26.266 0 0 1-1.508-2.032 25.942 25.942 0 0 1-2.382-4.457 27 27 0 0 1-.852-2.383 25.712 25.712 0 0 1-.984-10.008 25.712 25.712 0 0 1 .984-4.953 25.446 25.446 0 0 1 1.934-4.668c.398-.746.832-1.468 1.3-2.172.47-.699.973-1.378 1.508-2.03a24.875 24.875 0 0 1 1.7-1.872 24.875 24.875 0 0 1 1.87-1.7 26.266 26.266 0 0 1 2.032-1.507 25.942 25.942 0 0 1 4.457-2.383 27 27 0 0 1 2.383-.851 25.711 25.711 0 0 1 7.48-1.11ZM13.531 59.277H148.84v72.618l-11.469 11.468 10.438 10.438a43.55 43.55 0 0 0-3.543 8.57h-14.754v6.441H63.918a19.334 19.334 0 0 0-10.453-11.253c-.688-.301-1.395-.563-2.113-.786a19.452 19.452 0 0 0-6.688-.816c-.75.04-1.496.121-2.238.25-.742.125-1.477.297-2.2.508a19.33 19.33 0 0 0-2.12.765 18.68 18.68 0 0 0-2.02 1.004 19.722 19.722 0 0 0-3.621 2.676 19.797 19.797 0 0 0-1.55 1.637c-.485.578-.935 1.18-1.352 1.808-.415.63-.79 1.278-1.13 1.95-.34.672-.636 1.363-.898 2.07-.258.707-.473 1.43-.648 2.16a19.452 19.452 0 0 0 0 8.945c.175.73.39 1.454.648 2.16a19.738 19.738 0 0 0 2.027 4.02 19.147 19.147 0 0 0 2.902 3.441c.552.516 1.13 1 1.735 1.446.606.45 1.235.86 1.887 1.234.652.375 1.328.711 2.02 1.004.69.297 1.398.55 2.12.766.723.21 1.458.383 2.2.508.742.129 1.488.21 2.238.25.754.043 1.504.039 2.258-.012a19.453 19.453 0 0 0 4.43-.805 20.156 20.156 0 0 0 2.113-.785c.691-.305 1.36-.644 2.008-1.027a18.399 18.399 0 0 0 1.875-1.25 19.881 19.881 0 0 0 1.718-1.465 19.214 19.214 0 0 0 2.868-3.473c.406-.633.777-1.285 1.109-1.96.332-.677.625-1.372.875-2.083h65.594v6.446h14.754a43.55 43.55 0 0 0 3.543 8.57l-10.438 10.758 18.234 18.234 10.438-10.437a43.314 43.314 0 0 0 8.57 3.542v14.434h25.774v-14.754a43.55 43.55 0 0 0 8.57-3.543l10.758 10.438 17.914-17.914-10.438-10.438a43.57 43.57 0 0 0 3.543-8.89h14.754v-6.446h65.594c.25.711.543 1.406.875 2.082.332.676.703 1.328 1.11 1.961a19.214 19.214 0 0 0 2.867 3.473c.543.52 1.117 1.008 1.718 1.465.598.453 1.223.87 1.875 1.25.649.382 1.317.722 2.008 1.027.688.3 1.395.563 2.113.785a19.453 19.453 0 0 0 6.688.817c.75-.04 1.496-.121 2.238-.25a19.285 19.285 0 0 0 2.2-.508 19.33 19.33 0 0 0 2.12-.766 18.68 18.68 0 0 0 2.02-1.004 19.322 19.322 0 0 0 1.887-1.234 19.1 19.1 0 0 0 1.734-1.445 19.147 19.147 0 0 0 4.031-5.391c.34-.672.637-1.363.899-2.07.258-.707.473-1.43.648-2.16a19.452 19.452 0 0 0 0-8.946c-.175-.73-.39-1.453-.648-2.16a19.835 19.835 0 0 0-.899-2.07c-.34-.672-.714-1.32-1.128-1.95a20.344 20.344 0 0 0-1.352-1.808 19.797 19.797 0 0 0-1.55-1.637 19.722 19.722 0 0 0-3.622-2.676 18.68 18.68 0 0 0-2.02-1.004 19.33 19.33 0 0 0-2.12-.765 19.285 19.285 0 0 0-2.2-.508 18.771 18.771 0 0 0-2.238-.25 18.144 18.144 0 0 0-2.258.012 19.452 19.452 0 0 0-4.43.805c-.718.222-1.425.484-2.113.785-.691.304-1.36.644-2.008 1.027a19.215 19.215 0 0 0-3.594 2.715 19.213 19.213 0 0 0-2.867 3.472 19.334 19.334 0 0 0-1.984 4.04h-65.594v-6.442h-14.754a43.55 43.55 0 0 0-3.543-8.57l10.438-10.438-11.469-11.468V59.277H361.47v206.188H13.53Zm0 0"/><path fill="#c3cded" d="M32.86 91.496h32.218v51.547c0 .422.04.84.121 1.254.086.418.207.82.367 1.21.164.391.364.763.598 1.114a6.379 6.379 0 0 0 1.777 1.777c.352.235.723.434 1.114.594a6.509 6.509 0 0 0 2.465.492h38.66a6.479 6.479 0 0 0 4.558-1.886c.297-.301.567-.625.801-.977.234-.351.434-.723.594-1.113.164-.39.285-.793.367-1.211.082-.414.125-.832.125-1.254a6.448 6.448 0 0 0-.492-2.469c-.16-.39-.36-.762-.594-1.113a6.617 6.617 0 0 0-.8-.977 6.377 6.377 0 0 0-2.094-1.395 6.479 6.479 0 0 0-2.465-.492H77.965V85.052a6.509 6.509 0 0 0-.492-2.465 6.42 6.42 0 0 0-2.371-2.89 6.632 6.632 0 0 0-1.114-.598 6.974 6.974 0 0 0-1.21-.368 6.445 6.445 0 0 0-1.258-.12H32.86c-.422 0-.84.038-1.255.12-.418.086-.82.207-1.21.368-.391.164-.762.363-1.114.597a6.379 6.379 0 0 0-1.777 1.778 6.632 6.632 0 0 0-.598 1.113 6.509 6.509 0 0 0-.363 3.723c.082.414.203.816.363 1.207.164.39.364.765.598 1.117a6.379 6.379 0 0 0 1.777 1.777c.352.235.723.434 1.114.594a6.439 6.439 0 0 0 2.465.492ZM335.695 78.61h-38.66c-.422 0-.84.038-1.258.12a6.832 6.832 0 0 0-1.207.368c-.39.164-.761.363-1.113.597-.352.235-.68.5-.977.801-.3.297-.566.625-.8.977a6.632 6.632 0 0 0-.598 1.113c-.16.39-.281.793-.367 1.207a6.504 6.504 0 0 0-.121 1.258v51.547h-32.219a6.439 6.439 0 0 0-2.465.492c-.39.16-.762.36-1.113.594a6.379 6.379 0 0 0-1.777 1.777 6.632 6.632 0 0 0-.598 1.113c-.16.39-.281.797-.363 1.211a6.16 6.16 0 0 0-.125 1.258c0 .422.039.84.125 1.254.082.418.203.82.363 1.21.164.391.363.763.598 1.114a6.379 6.379 0 0 0 1.777 1.777c.351.235.723.434 1.113.594.39.164.793.285 1.211.367.414.082.832.125 1.254.125h38.66a6.448 6.448 0 0 0 2.465-.492c.395-.16.766-.36 1.117-.594.352-.234.676-.503.977-.8.297-.301.566-.625.8-.977.235-.351.434-.723.594-1.113.164-.39.285-.793.367-1.211.082-.414.125-.832.125-1.254V91.496h32.215a6.479 6.479 0 0 0 3.582-1.086 6.39 6.39 0 0 0 .973-.8c.3-.301.566-.626.805-.977.234-.352.433-.727.593-1.117a6.448 6.448 0 0 0 .367-3.723 6.236 6.236 0 0 0-.367-1.207 6.343 6.343 0 0 0-1.398-2.09 6.167 6.167 0 0 0-.973-.8 6.824 6.824 0 0 0-1.117-.598 6.832 6.832 0 0 0-1.207-.368 6.475 6.475 0 0 0-1.258-.12Zm0 0"/></svg>